<svg xmlns="http://www.w3.org/2000/svg" width="24" height="24" viewBox="0 0 24 24">
  <g id="Сгруппировать_245" data-name="Сгруппировать 245" transform="translate(-75 -267.094)">
    <g id="phone-call" transform="translate(74.656 265.706)">
      <g id="Сгруппировать_239" data-name="Сгруппировать 239" transform="translate(0.344 1.388)">
        <path id="Контур_127" data-name="Контур 127" d="M20.548,41.712a2.522,2.522,0,0,0-1.825-.833,2.608,2.608,0,0,0-1.847.828L15.169,43.4c-.14-.075-.281-.145-.416-.215-.194-.1-.378-.188-.535-.285a18.518,18.518,0,0,1-4.445-4.032,10.887,10.887,0,0,1-1.458-2.29c.443-.4.853-.823,1.253-1.226.151-.151.3-.306.454-.457a2.459,2.459,0,0,0,0-3.72L8.548,29.707c-.167-.167-.34-.339-.5-.511-.324-.333-.664-.677-1.015-1a2.562,2.562,0,0,0-1.809-.79,2.651,2.651,0,0,0-1.836.79l-.011.011L1.539,30.051a3.926,3.926,0,0,0-1.172,2.5,9.388,9.388,0,0,0,.691,3.989A23.127,23.127,0,0,0,5.189,43.4,25.4,25.4,0,0,0,13.652,50,13.229,13.229,0,0,0,18.4,51.4c.113.005.232.011.34.011a4.078,4.078,0,0,0,3.116-1.333c.005-.011.016-.016.022-.027a12.246,12.246,0,0,1,.945-.973c.232-.22.47-.452.7-.694a2.676,2.676,0,0,0,.815-1.86,2.579,2.579,0,0,0-.832-1.844Zm1.933,5.661c-.005,0-.005.005,0,0-.211.226-.427.43-.659.656A14.169,14.169,0,0,0,20.78,49.1a2.609,2.609,0,0,1-2.031.855c-.081,0-.167,0-.248-.005A11.752,11.752,0,0,1,14.289,48.7a23.974,23.974,0,0,1-7.971-6.215A21.807,21.807,0,0,1,2.43,36.035a7.646,7.646,0,0,1-.6-3.366,2.463,2.463,0,0,1,.745-1.6l1.842-1.833a1.23,1.23,0,0,1,.821-.382,1.157,1.157,0,0,1,.788.376l.016.016c.329.306.643.624.972.962.167.172.34.344.513.522L9,32.2a1.023,1.023,0,0,1,0,1.667c-.157.156-.308.312-.464.462-.454.462-.886.892-1.356,1.312-.011.011-.022.016-.027.027a1.093,1.093,0,0,0-.281,1.22l.016.048a11.774,11.774,0,0,0,1.744,2.833l.005.005a19.79,19.79,0,0,0,4.8,4.344,7.39,7.39,0,0,0,.664.36c.194.1.378.188.535.285.022.011.043.027.065.038a1.175,1.175,0,0,0,.535.134,1.157,1.157,0,0,0,.821-.371L17.9,42.729a1.224,1.224,0,0,1,.815-.4,1.1,1.1,0,0,1,.778.392l.011.011,2.976,2.962A1.06,1.06,0,0,1,22.481,47.374Z" transform="translate(-0.344 -27.406)" fill="#fff"/>
      </g>
    </g>
    <path id="Контур_130" data-name="Контур 130" d="M336.979,333.139a3.131,3.131,0,1,0-4.41,0,4.76,4.76,0,0,0-2.554,4.213.727.727,0,0,0,.727.727h8.065a.727.727,0,0,0,.727-.727A4.76,4.76,0,0,0,336.979,333.139Zm-2.205-3.894a1.675,1.675,0,1,1-1.677,1.675A1.678,1.678,0,0,1,334.774,329.246Zm-3.224,7.38a3.306,3.306,0,0,1,6.448,0Z" transform="translate(-243.015 -60.698)" fill="#fff"/>
  </g>
</svg>
