<svg xmlns="http://www.w3.org/2000/svg" width="24.5" height="24.5" viewBox="0 0 24.5 24.5">
  <g id="logout_1_" data-name="logout (1)" transform="translate(0.25 0.25)">
    <g id="Сгруппировать_11102" data-name="Сгруппировать 11102">
      <path id="Контур_2230" data-name="Контур 2230" d="M13.5,24H2.5A2.5,2.5,0,0,1,0,21.5V2.5A2.5,2.5,0,0,1,2.5,0h11A2.5,2.5,0,0,1,16,2.5v6a.5.5,0,0,1-1,0v-6A1.5,1.5,0,0,0,13.5,1H2.5A1.5,1.5,0,0,0,1,2.5v19A1.5,1.5,0,0,0,2.5,23h11A1.5,1.5,0,0,0,15,21.5v-6a.5.5,0,0,1,1,0v6A2.5,2.5,0,0,1,13.5,24Z" fill="#fff" stroke="#fff" stroke-width="0.5"/>
    </g>
    <g id="Сгруппировать_11103" data-name="Сгруппировать 11103">
      <path id="Контур_2231" data-name="Контур 2231" d="M23.5,12.5H8.5a.5.5,0,0,1,0-1h15a.5.5,0,0,1,0,1Z" fill="#fff" stroke="#fff" stroke-width="0.5"/>
    </g>
    <g id="Сгруппировать_11104" data-name="Сгруппировать 11104">
      <path id="Контур_2232" data-name="Контур 2232" d="M19.5,16.5a.5.5,0,0,1-.354-.853L22.793,12,19.147,8.354a.5.5,0,0,1,.707-.707l4,4a.5.5,0,0,1,0,.707l-4,4A.5.5,0,0,1,19.5,16.5Z" fill="#fff" stroke="#fff" stroke-width="0.5"/>
    </g>
  </g>
</svg>
