<svg id="class" xmlns="http://www.w3.org/2000/svg" width="24.35" height="24.35" viewBox="0 0 24.35 24.35">
  <g id="Сгруппировать_242" data-name="Сгруппировать 242" transform="translate(3.567)">
    <g id="Сгруппировать_241" data-name="Сгруппировать 241">
      <path id="Контур_140" data-name="Контур 140" d="M77.854,0A2.892,2.892,0,0,0,75,2.9a2.854,2.854,0,0,0,5.707,0A2.892,2.892,0,0,0,77.854,0Zm0,4.328A1.428,1.428,0,0,1,76.427,2.9a1.428,1.428,0,1,1,2.854,0A1.428,1.428,0,0,1,77.854,4.328Z" transform="translate(-75)" fill="#fff"/>
    </g>
  </g>
  <g id="Сгруппировать_244" data-name="Сгруппировать 244">
    <g id="Сгруппировать_243" data-name="Сгруппировать 243">
      <path id="Контур_141" data-name="Контур 141" d="M22.21,0H12.128a2.143,2.143,0,0,0-2.14,2.14V7.009L9.36,6.382a2.126,2.126,0,0,0-1.513-.627H3.567A3.571,3.571,0,0,0,0,9.322V13.6A2.141,2.141,0,0,0,2.854,15.62v6.59A2.139,2.139,0,0,0,6.42,23.8,2.139,2.139,0,0,0,9.987,22.21V12.767a2.148,2.148,0,0,0,1.671-.1l2.4-1.2h8.15a2.143,2.143,0,0,0,2.14-2.14V2.14A2.143,2.143,0,0,0,22.21,0ZM13.873,9.96l-2.853,1.426a.713.713,0,0,1-.824-.133l-.418-.418a.714.714,0,0,0-1.218.5V22.21a.713.713,0,1,1-1.427,0V15.029a.713.713,0,1,0-1.427,0V22.21a.713.713,0,1,1-1.427,0V9.322a.713.713,0,1,0-1.427,0V13.6a.713.713,0,0,1-1.427,0c0-.538,0-3.841,0-4.28a2.143,2.143,0,0,1,2.14-2.14h4.28a.708.708,0,0,1,.5.209l2.126,2.126a.713.713,0,0,0,.823.134l1.934-.967a.714.714,0,0,1,.638,1.277Zm9.05-.638a.714.714,0,0,1-.713.713H15.572L15.585,10a2.132,2.132,0,0,0,.094-.942l3.9-1.951a.713.713,0,1,0-.638-1.276l-3.9,1.951A2.138,2.138,0,0,0,12.6,7.407L11.414,8V2.14a.714.714,0,0,1,.713-.713H22.21a.714.714,0,0,1,.713.713Z" fill="#fff"/>
    </g>
  </g>
</svg>
