<svg xmlns="http://www.w3.org/2000/svg" width="24" height="24" viewBox="0 0 24 24">
  <path id="writing" d="M21.312.206a.7.7,0,0,0-.994,0L14.9,5.625H2.61A2.112,2.112,0,0,0,.5,7.734v9.844A2.112,2.112,0,0,0,2.61,19.687h.75V23.3a.7.7,0,0,0,1.206.492l4.012-4.1h8.189a2.112,2.112,0,0,0,2.109-2.109V9.6L24.3,4.183a.7.7,0,0,0,0-.994ZM14.849,11.641,12.86,9.652l5.966-5.966,1.989,1.989Zm-2.738-.749,1.5,1.5-2.568,1.07Zm5.359,6.686a.7.7,0,0,1-.7.7H8.282a.7.7,0,0,0-.5.211l-3.013,3.08V18.984a.7.7,0,0,0-.7-.7H2.61a.7.7,0,0,1-.7-.7V7.734a.7.7,0,0,1,.7-.7H13.492L11.368,9.155a.719.719,0,0,0-.155.235L9.267,14.063H5.47a.7.7,0,1,0,0,1.406H9.736a.711.711,0,0,0,.276-.057l5.1-2.124a.714.714,0,0,0,.235-.155l2.124-2.124Zm4.339-12.9L19.82,2.692l.994-.994L22.8,3.686Zm0,0" transform="translate(-0.501 0)" fill="#fff"/>
</svg>
