<svg xmlns="http://www.w3.org/2000/svg" width="24" height="22.08" viewBox="0 0 24 22.08">
  <g id="comment_2_" data-name="comment (2)" transform="translate(-0.001 1.332)">
    <path id="Контур_123" data-name="Контур 123" d="M20.7-1.332H3.3A3.3,3.3,0,0,0,0,1.968V12.617a3.3,3.3,0,0,0,3.288,3.3v4.832l6.945-4.832H20.7a3.3,3.3,0,0,0,3.3-3.3V1.968a3.3,3.3,0,0,0-3.3-3.3Zm1.893,13.949A1.9,1.9,0,0,1,20.7,14.51H9.792l-5.1,3.547V14.51H3.3a1.9,1.9,0,0,1-1.893-1.893V1.968A1.9,1.9,0,0,1,3.3.074H20.7a1.9,1.9,0,0,1,1.893,1.893Zm0,0" transform="translate(0 0)" fill="#fff"/>
    <path id="Контур_124" data-name="Контур 124" d="M171.293,131.172h11.153v1.406H171.293Zm0,0" transform="translate(-164.869 -127.535)" fill="#fff"/>
    <path id="Контур_125" data-name="Контур 125" d="M171.293,211.172h11.153v1.406H171.293Zm0,0" transform="translate(-164.869 -204.535)" fill="#fff"/>
    <path id="Контур_126" data-name="Контур 126" d="M171.293,291.172h11.153v1.406H171.293Zm0,0" transform="translate(-164.869 -281.535)" fill="#fff"/>
  </g>
</svg>
