<svg xmlns="http://www.w3.org/2000/svg" width="24.3" height="24.3" viewBox="0 0 24.3 24.3">
  <g id="communication" transform="translate(0.143 0.15)">
    <g id="Сгруппировать_240" data-name="Сгруппировать 240" transform="translate(0.007 0)">
      <path id="Контур_133" data-name="Контур 133" d="M7.267,300.252a3.1,3.1,0,1,0-5.175,0,3.383,3.383,0,0,0-2.085,3.1v1.9a.475.475,0,0,0,.475.475h8.4a.475.475,0,0,0,.475-.475v-1.9A3.383,3.383,0,0,0,7.267,300.252ZM4.68,296.4a2.15,2.15,0,1,1-2.15,2.149A2.152,2.152,0,0,1,4.68,296.4ZM8.4,304.779H.956v-1.424a2.425,2.425,0,0,1,1.85-2.34,3.091,3.091,0,0,0,3.747,0,2.425,2.425,0,0,1,1.85,2.34Z" transform="translate(-0.007 -281.728)" fill="#fff" stroke="#fff" stroke-width="0.3"/>
      <path id="Контур_134" data-name="Контур 134" d="M322.352,300.252a3.1,3.1,0,1,0-5.174,0,3.383,3.383,0,0,0-2.086,3.1v1.9a.475.475,0,0,0,.475.475h8.4a.475.475,0,0,0,.475-.475v-1.9A3.383,3.383,0,0,0,322.352,300.252Zm-2.587-3.853a2.15,2.15,0,1,1-2.149,2.149A2.152,2.152,0,0,1,319.765,296.4Zm3.725,8.381h-7.448v-1.424a2.425,2.425,0,0,1,1.85-2.34,3.09,3.09,0,0,0,3.747,0,2.425,2.425,0,0,1,1.851,2.34v1.424Z" transform="translate(-300.439 -281.728)" fill="#fff" stroke="#fff" stroke-width="0.3"/>
      <path id="Контур_135" data-name="Контур 135" d="M44.2,12.543a.462.462,0,0,0,.473.019.476.476,0,0,0,.247-.409l.027-1.432a2.876,2.876,0,0,0-.115-5.6,4.24,4.24,0,0,0,.1-.918A4.18,4.18,0,0,0,40.789,0H37.6a.471.471,0,0,0-.468.475A.471.471,0,0,0,37.6.949h3.193A3.236,3.236,0,0,1,44,4.2a3.275,3.275,0,0,1-.116.863H37.491A2.843,2.843,0,0,0,34.7,7.46H33.446a.464.464,0,0,0-.291.1L30.384,9.8,30.348,7.91a.472.472,0,0,0-.427-.464A3.257,3.257,0,0,1,30.2.949h3.193a.471.471,0,0,0,.468-.475A.471.471,0,0,0,33.395,0H30.2a4.212,4.212,0,0,0-3.047,7.05A4.126,4.126,0,0,0,29.42,8.333l.047,2.444a.475.475,0,0,0,.269.42.462.462,0,0,0,.49-.058L33.61,8.409H34.7A2.843,2.843,0,0,0,37.491,10.8h4.028ZM35.6,7.934a1.906,1.906,0,0,1,1.89-1.918h6.79a1.919,1.919,0,0,1,.166,3.828.472.472,0,0,0-.427.464L44,11.286,41.908,9.927a.463.463,0,0,0-.252-.075H37.491A1.906,1.906,0,0,1,35.6,7.934Z" transform="translate(-24.819 0)" fill="#fff" stroke="#fff" stroke-width="0.3"/>
      <path id="Контур_136" data-name="Контур 136" d="M276.7,157.136a.475.475,0,1,0,.475.475h0A.474.474,0,0,0,276.7,157.136Z" transform="translate(-263.288 -149.774)" fill="#fff" stroke="#fff" stroke-width="0.3"/>
      <path id="Контур_137" data-name="Контур 137" d="M333.452,157.136a.475.475,0,1,0,.475.475h0A.474.474,0,0,0,333.452,157.136Z" transform="translate(-317.377 -149.774)" fill="#fff" stroke="#fff" stroke-width="0.3"/>
      <path id="Контур_138" data-name="Контур 138" d="M390.171,158.086a.475.475,0,0,0,.475-.475h0a.475.475,0,1,0-.475.476Z" transform="translate(-371.438 -149.774)" fill="#fff" stroke="#fff" stroke-width="0.3"/>
      <path id="Контур_139" data-name="Контур 139" d="M218.258.949h0a.475.475,0,1,0-.477-.475A.474.474,0,0,0,218.26.949Z" transform="translate(-207.58 0)" fill="#fff" stroke="#fff" stroke-width="0.3"/>
    </g>
  </g>
</svg>
