<svg xmlns="http://www.w3.org/2000/svg" width="17.568" height="24" viewBox="0 0 17.568 24">
  <g id="dictionary" transform="translate(-60.25)">
    <path id="Контур_131" data-name="Контур 131" d="M77.818.7a.689.689,0,0,0-.673-.7H62.275A2.074,2.074,0,0,0,60.25,2.115v19.77A2.074,2.074,0,0,0,62.275,24h14.87a.689.689,0,0,0,.673-.7ZM76.472,19.77H64.3V1.406H76.472ZM62.275,1.406h.679V19.77h-.679a1.938,1.938,0,0,0-.679.123V2.115A.7.7,0,0,1,62.275,1.406Zm14.2,21.188h-14.2a.71.71,0,0,1,0-1.418h14.2Z" fill="#fff"/>
    <path id="Контур_132" data-name="Контур 132" d="M225.188,157.339a.673.673,0,0,0,.863-.4l.332-.91h2.02l.332.91a.673.673,0,0,0,1.265-.462l-1.974-5.407a.673.673,0,0,0-1.264,0l-1.974,5.407A.673.673,0,0,0,225.188,157.339Zm2.205-4.077.518,1.42h-1.037Z" transform="translate(-157.114 -143.44)" fill="#fff"/>
  </g>
</svg>
