<svg xmlns="http://www.w3.org/2000/svg" width="24.5" height="24.5" viewBox="0 0 24.5 24.5">
  <g id="settings_2_" data-name="settings (2)" transform="translate(0.25 0.25)">
    <g id="Сгруппировать_11106" data-name="Сгруппировать 11106" transform="translate(0 8)">
      <g id="Сгруппировать_11105" data-name="Сгруппировать 11105">
        <path id="Контур_2246" data-name="Контур 2246" d="M14.8,166h-.44a.394.394,0,0,1-.37-.258c-.049-.128-.1-.253-.158-.377a.394.394,0,0,1,.08-.446l.314-.314a1.2,1.2,0,0,0,0-1.7l-1.13-1.13a1.2,1.2,0,0,0-1.7,0l-.314.313a.4.4,0,0,1-.446.08c-.124-.056-.249-.109-.378-.16a.393.393,0,0,1-.26-.371v-.44A1.2,1.2,0,0,0,8.8,160H7.2A1.2,1.2,0,0,0,6,161.2v.44a.394.394,0,0,1-.258.37c-.128.049-.253.1-.377.158a.4.4,0,0,1-.446-.08l-.314-.314a1.2,1.2,0,0,0-1.7,0l-1.13,1.134a1.2,1.2,0,0,0,0,1.7l.313.314a.394.394,0,0,1,.08.446c-.056.124-.109.249-.158.378A.393.393,0,0,1,1.64,166H1.2A1.2,1.2,0,0,0,0,167.2v1.6A1.2,1.2,0,0,0,1.2,170h.44a.394.394,0,0,1,.37.258c.049.128.1.253.158.377a.394.394,0,0,1-.08.446l-.314.314a1.2,1.2,0,0,0,0,1.7l1.13,1.13a1.2,1.2,0,0,0,1.7,0l.314-.313a.4.4,0,0,1,.446-.08c.124.056.249.109.378.16A.393.393,0,0,1,6,174.36v.44A1.2,1.2,0,0,0,7.2,176H8.8a1.2,1.2,0,0,0,1.2-1.2v-.44a.394.394,0,0,1,.258-.37c.128-.049.253-.1.377-.158a.4.4,0,0,1,.446.08l.314.314a1.2,1.2,0,0,0,1.7,0l1.13-1.13a1.2,1.2,0,0,0,0-1.7l-.313-.314a.394.394,0,0,1-.08-.446c.056-.124.109-.249.16-.378a.393.393,0,0,1,.371-.26h.44a1.2,1.2,0,0,0,1.2-1.2v-1.6A1.2,1.2,0,0,0,14.8,166Zm.4,2.8a.4.4,0,0,1-.4.4h-.44a1.2,1.2,0,0,0-1.12.774q-.064.168-.138.331a1.2,1.2,0,0,0,.24,1.342l.313.313a.4.4,0,0,1,0,.566h0l-1.13,1.13a.4.4,0,0,1-.566,0l-.314-.313a1.2,1.2,0,0,0-1.342-.24c-.108.049-.219.1-.33.138A1.2,1.2,0,0,0,9.2,174.36v.44a.4.4,0,0,1-.4.4H7.2a.4.4,0,0,1-.4-.4v-.44a1.2,1.2,0,0,0-.774-1.12q-.168-.064-.331-.138a1.2,1.2,0,0,0-1.342.24l-.313.313a.4.4,0,0,1-.566,0h0l-1.13-1.129a.4.4,0,0,1,0-.566l.313-.314A1.2,1.2,0,0,0,2.9,170.3c-.049-.108-.1-.219-.138-.33A1.2,1.2,0,0,0,1.64,169.2H1.2a.4.4,0,0,1-.4-.4v-1.6a.4.4,0,0,1,.4-.4h.44a1.2,1.2,0,0,0,1.12-.774q.064-.168.138-.331a1.2,1.2,0,0,0-.24-1.342l-.314-.313a.4.4,0,0,1,0-.566h0l1.13-1.13a.4.4,0,0,1,.566,0l.314.313a1.2,1.2,0,0,0,1.342.24c.108-.049.219-.1.33-.138A1.2,1.2,0,0,0,6.8,161.64v-.44a.4.4,0,0,1,.4-.4H8.8a.4.4,0,0,1,.4.4v.44a1.2,1.2,0,0,0,.774,1.12q.168.064.331.138a1.2,1.2,0,0,0,1.342-.24l.313-.313a.4.4,0,0,1,.566,0l1.13,1.13a.4.4,0,0,1,0,.566l-.313.314a1.2,1.2,0,0,0-.24,1.342c.049.108.1.219.138.33a1.2,1.2,0,0,0,1.119.773h.44a.4.4,0,0,1,.4.4v1.6Z" transform="translate(0 -160)" fill="#fff" stroke="#fff" stroke-width="0.5"/>
      </g>
    </g>
    <g id="Сгруппировать_11108" data-name="Сгруппировать 11108" transform="translate(4.398 12.4)">
      <g id="Сгруппировать_11107" data-name="Сгруппировать 11107">
        <path id="Контур_2247" data-name="Контур 2247" d="M95.153,251.44c0-.1-.011-.192-.022-.287s-.028-.2-.049-.3c-.014-.065-.032-.13-.05-.194q-.034-.124-.076-.244c-.02-.056-.04-.111-.061-.166a3.564,3.564,0,0,0-.176-.374c-.005-.009-.008-.019-.014-.028a3.549,3.549,0,0,0-.36-.524c-.012-.014-.025-.028-.037-.042-.055-.065-.112-.128-.172-.189-.031-.032-.064-.063-.1-.094s-.08-.074-.12-.109-.1-.083-.148-.122l-.066-.049A3.575,3.575,0,0,0,91.561,248c-.04,0-.08.006-.12.008-.085,0-.171.007-.257.016l-.136.016a3.668,3.668,0,0,0-.388.072,3.6,3.6,0,0,0,0,6.976.092.092,0,0,1,.02,0,3.814,3.814,0,0,0,.419.08c.093.012.186.014.28.018.062,0,.12.012.185.012.114,0,.232-.008.353-.02a.392.392,0,0,0,.04-.005c.1-.011.2-.025.3-.045.04-.008.077-.018.116-.026.07-.016.14-.034.212-.055.056-.017.11-.036.165-.056l.168-.062c.057-.022.1-.046.156-.07.067-.031.134-.061.2-.1h0a4.734,4.734,0,0,0,1.025-.74,1.259,1.259,0,0,0,.214-.262,4.27,4.27,0,0,0,.6-1.644c.011-.077.021-.154.027-.233s.01-.144.011-.216c0-.023,0-.044,0-.067C95.161,251.546,95.155,251.494,95.153,251.44Zm-.8.262c0,.033,0,.066,0,.1-.007.1-.02.194-.036.291a2.806,2.806,0,0,1-1.406,1.96c-.05.026-.1.05-.147.073l-.033.016a2.889,2.889,0,0,1-.73.221l-.054.008c-.05.007-.1.013-.148.018-.064.006-.129.009-.2.01h-.084a2.81,2.81,0,0,1-.283-.018l-.048-.006a2.96,2.96,0,0,1-.327-.062,2.8,2.8,0,0,1,0-5.424h0a2.9,2.9,0,0,1,.7-.088,2.766,2.766,0,0,1,.342.023l.09.014c.086.014.172.031.256.052l.082.021a2.824,2.824,0,0,1,.61.257l.091.056c.063.04.124.08.185.126.032.024.065.047.1.072a2.884,2.884,0,0,1,.225.2c.028.029.054.06.082.09.046.05.091.1.134.155.03.037.058.076.086.114.04.058.08.118.116.178l.06.1a2.744,2.744,0,0,1,.138.293c.016.04.03.08.044.12.026.074.048.148.068.223.01.04.021.076.03.114a2.82,2.82,0,0,1,.051.328c0,.029,0,.059,0,.088C94.357,251.517,94.359,251.609,94.355,251.7Z" transform="translate(-87.959 -248)" fill="#fff" stroke="#fff" stroke-width="0.5"/>
      </g>
    </g>
    <g id="Сгруппировать_11110" data-name="Сгруппировать 11110" transform="translate(4.363)">
      <g id="Сгруппировать_11109" data-name="Сгруппировать 11109">
        <path id="Контур_2248" data-name="Контур 2248" d="M105.7,8.4H104.44a.39.39,0,0,1-.373-.262,8.331,8.331,0,0,0-.449-1.084.392.392,0,0,1,.077-.452l.892-.893a1.2,1.2,0,0,0,0-1.7l-1.7-1.7a1.2,1.2,0,0,0-1.7,0l-.892.891a.392.392,0,0,1-.451.077,8.31,8.31,0,0,0-1.085-.452.39.39,0,0,1-.264-.373V1.2A1.2,1.2,0,0,0,97.3,0H94.9a1.2,1.2,0,0,0-1.2,1.2V2.458a.39.39,0,0,1-.262.373,8.336,8.336,0,0,0-1.084.451.391.391,0,0,1-.452-.077l-.893-.892a1.2,1.2,0,0,0-1.7,0l-1.7,1.7a1.2,1.2,0,0,0,0,1.7l1.312,1.314a.4.4,0,0,0,.566-.565L88.178,5.143a.4.4,0,0,1,0-.566l1.7-1.7a.4.4,0,0,1,.566,0l.894.892A1.189,1.189,0,0,0,92.709,4a7.568,7.568,0,0,1,.98-.408A1.19,1.19,0,0,0,94.5,2.458V1.2a.4.4,0,0,1,.4-.4h2.4a.4.4,0,0,1,.4.4V2.458a1.19,1.19,0,0,0,.808,1.132A7.544,7.544,0,0,1,99.487,4a1.192,1.192,0,0,0,1.374-.226l.894-.892a.4.4,0,0,1,.566,0l1.7,1.7a.4.4,0,0,1,0,.565l-.892.894a1.19,1.19,0,0,0-.226,1.374,7.569,7.569,0,0,1,.408.98,1.19,1.19,0,0,0,1.132.808H105.7a.4.4,0,0,1,.4.4V12a.4.4,0,0,1-.4.4H104.44a1.19,1.19,0,0,0-1.132.808,7.537,7.537,0,0,1-.408.981,1.191,1.191,0,0,0,.226,1.374l.892.894a.4.4,0,0,1,0,.566l-1.7,1.7a.4.4,0,0,1-.565,0l-1.314-1.312a.4.4,0,1,0-.575.557l.01.01,1.314,1.312a1.2,1.2,0,0,0,1.7,0l1.7-1.7a1.2,1.2,0,0,0,0-1.7L103.693,15a.392.392,0,0,1-.077-.451,8.31,8.31,0,0,0,.452-1.085.39.39,0,0,1,.373-.264H105.7a1.2,1.2,0,0,0,1.2-1.2V9.6A1.2,1.2,0,0,0,105.7,8.4Z" transform="translate(-87.261)" fill="#fff" stroke="#fff" stroke-width="0.5"/>
      </g>
    </g>
    <g id="Сгруппировать_11112" data-name="Сгруппировать 11112" transform="translate(9.411 5.602)">
      <g id="Сгруппировать_11111" data-name="Сгруппировать 11111">
        <path id="Контур_2249" data-name="Контур 2249" d="M195.685,113.57a5.205,5.205,0,0,0-7.354,0,.4.4,0,0,0,.566.566,4.4,4.4,0,0,1,6.264,6.181l-.042.042a.4.4,0,0,0,.556.575l.01-.01A5.205,5.205,0,0,0,195.685,113.57Z" transform="translate(-188.219 -112.049)" fill="#fff" stroke="#fff" stroke-width="0.5"/>
      </g>
    </g>
  </g>
</svg>
