<svg xmlns="http://www.w3.org/2000/svg" width="34.826" height="24.5" viewBox="0 0 34.826 24.5">
  <g id="Сгруппировать_11085" data-name="Сгруппировать 11085" transform="translate(-519.424 -635.75)">
    <g id="Сгруппировать_11080" data-name="Сгруппировать 11080" transform="translate(-4.326 -11.108)">
      <path id="Контур_2224" data-name="Контур 2224" d="M-22070-14370.711h9.926" transform="translate(22614.543 15027.041)" fill="none" stroke="#707070" stroke-width="1.3"/>
      <path id="Контур_2228" data-name="Контур 2228" d="M-22070-14370.711h9.926" transform="translate(22614.543 15024.027)" fill="none" stroke="#707070" stroke-width="1.3"/>
      <path id="Контур_2225" data-name="Контур 2225" d="M-22070-14370.711h9.926" transform="translate(22614.549 15030.055)" fill="none" stroke="#707070" stroke-width="1.3"/>
      <path id="Контур_2226" data-name="Контур 2226" d="M-22070-14370.711h9.926" transform="translate(22614.543 15033.067)" fill="none" stroke="#707070" stroke-width="1.3"/>
      <path id="Контур_2227" data-name="Контур 2227" d="M-22070-14370.711h4.969" transform="translate(22614.584 15036.081)" fill="none" stroke="#707070" stroke-width="1.3"/>
      <g id="envelope_1_" data-name="envelope (1)" transform="translate(558.326 647.108) rotate(90)">
        <g id="Сгруппировать_11038" data-name="Сгруппировать 11038">
          <path id="Контур_2220" data-name="Контур 2220" d="M21.059,0H2.933A2.894,2.894,0,0,0,0,2.847V14.87a2.894,2.894,0,0,0,2.933,2.847H21.054a2.894,2.894,0,0,0,2.933-2.847V2.852A2.89,2.89,0,0,0,21.059,0Zm1.593,14.87a1.572,1.572,0,0,1-1.593,1.546H2.933A1.572,1.572,0,0,1,1.34,14.87V2.852A1.572,1.572,0,0,1,2.933,1.305H21.054a1.572,1.572,0,0,1,1.593,1.546V14.87Z" fill="#193158" stroke="#193158" stroke-width="0.5"/>
        </g>
      </g>
      <rect id="Прямоугольник_1266" data-name="Прямоугольник 1266" width="22.884" height="17.163" rx="3" transform="translate(524 653.945)" fill="#fff"/>
      <g id="envelope_1_2" data-name="envelope (1)" transform="translate(524 653.391)">
        <g id="Сгруппировать_11038-2" data-name="Сгруппировать 11038">
          <path id="Контур_2220-2" data-name="Контур 2220" d="M20.739,57.75H2.889A2.871,2.871,0,0,0,0,60.6V72.62a2.871,2.871,0,0,0,2.889,2.847H20.734a2.871,2.871,0,0,0,2.889-2.847V60.6A2.867,2.867,0,0,0,20.739,57.75Zm1.569,14.87a1.56,1.56,0,0,1-1.569,1.546H2.889A1.56,1.56,0,0,1,1.32,72.62V60.6a1.56,1.56,0,0,1,1.569-1.546H20.734A1.56,1.56,0,0,1,22.3,60.6V72.62Z" transform="translate(0 -57.75)" fill="#193158" stroke="#193158" stroke-width="0.5"/>
          <path id="Контур_2221" data-name="Контур 2221" d="M67.991,115.156l5.809-5.113a.646.646,0,0,0,.049-.921.675.675,0,0,0-.939-.048l-8.01,7.057-1.563-1.37s-.01-.01-.01-.014a.976.976,0,0,0-.108-.092l-6.359-5.586a.671.671,0,0,0-.939.053.642.642,0,0,0,.054.921l5.877,5.157L56,120.578a.645.645,0,0,0-.029.921.685.685,0,0,0,.487.207.672.672,0,0,0,.452-.174l5.941-5.456,1.612,1.413a.671.671,0,0,0,.885,0L67,116.029l5.907,5.509a.674.674,0,0,0,.939-.024.645.645,0,0,0-.025-.921Z" transform="translate(-53.077 -106.447)" fill="#193158" stroke="#193158" stroke-width="0.5"/>
        </g>
      </g>
    </g>
  </g>
</svg>
