<svg xmlns="http://www.w3.org/2000/svg" xmlns:xlink="http://www.w3.org/1999/xlink" width="276" height="248" viewBox="0 0 276 248">
  <defs>
    <clipPath id="clip-path">
      <rect id="Rectangle_1179" data-name="Rectangle 1179" width="159.697" height="207.244" fill="none"/>
    </clipPath>
  </defs>
  <g id="Сгруппировать_11017" data-name="Сгруппировать 11017" transform="translate(19030 16770)">
    <rect id="Прямоугольник_1226" data-name="Прямоугольник 1226" width="276" height="247.756" transform="translate(-19030 -16770)" fill="#fff"/>
    <g id="Group_10995" data-name="Group 10995" transform="translate(-18972 -16729.244)">
      <g id="Group_10991" data-name="Group 10991">
        <g id="Group_10990" data-name="Group 10990" clip-path="url(#clip-path)">
          <path id="Path_2226" data-name="Path 2226" d="M29.232,21.312c1.512-2.913-.4-7.387,4.886-8.58,8.677,9.054.909,14.7-4.758,20.787-7.068-4.27-1.583-8.181-.129-12.207" transform="translate(88.705 43.722)" fill="#e2a56a"/>
          <path id="Path_2227" data-name="Path 2227" d="M15.447,21.333c-1.308-2.913.381-7.245-4.226-8.6a13.359,13.359,0,0,0-3.436,7.343C7.057,26.747,12.13,33.7,15.269,33.322c1.929-.235,2.9-3.219,3.006-3.552.913-2.82-.168-6.132-2.829-8.438" transform="translate(26.491 43.732)" fill="#e2a56a"/>
          <path id="Path_2228" data-name="Path 2228" d="M22.363,56.911,20.984,52.96c7.95-8.983,15.79-17.989,19.634-29.881,1.184-3.658,4.6-5.237,8.2-6.008,10.367,20.237-3.765,42.4-26.458,39.84" transform="translate(72.06 58.622)" fill="#6d4f3b"/>
          <path id="Path_2229" data-name="Path 2229" d="M12.8,37.935c.474-.013,5.41-.235,8.1-4.359A9.635,9.635,0,0,0,22.331,27.2a8.585,8.585,0,0,0-8.766,3.6,8.6,8.6,0,0,0-.763,7.134" transform="translate(42.416 92.931)" fill="#e2e3e3"/>
          <path id="Path_2230" data-name="Path 2230" d="M29.852,38.289a10.535,10.535,0,0,1-6.7-3.561,8.463,8.463,0,0,1-1.428-7.822c3.765-.04,7.121,1.84,8.5,4.713a7.419,7.419,0,0,1-.368,6.669" transform="translate(73.236 92.396)" fill="#e2e3e3"/>
          <path id="Path_2231" data-name="Path 2231" d="M83.647,71.907A105.416,105.416,0,0,1,64.4,95c-8.824,4-17.665,1.543-26.5.075A93.082,93.082,0,0,1,16.644,66.652,92.63,92.63,0,0,1,8.45,39.964C21.393,26.4,32.873,22.241,41.063,21c10.2-1.556,18.06.989,26.972-5.042C75.36,11,77.83,4.017,80.969,4.988c2.935.9.643,6.979,5.507,16.233,2.532,4.829,5.028,6.74,6.115,12.052a22.779,22.779,0,0,1,.191,7.733,54.584,54.584,0,0,1-2.168,15.949,60.85,60.85,0,0,1-6.966,14.952" transform="translate(29.018 16.814)" fill="#eabb87"/>
          <path id="Path_2232" data-name="Path 2232" d="M24.055,25.293c8.837,1.468,17.679,3.92,26.511-.075.129.443.328,1.131.554,1.969.971,3.512,1.49,6.053,1.6,6.54.474,2.08,2.284,5.192,8.305,9.649-2.674,10.81-5.347,19.474-7.316,25.416C52.083,73.736,50.872,77,44.682,93.809c-.7,1.893-6.669,18.1-7.312,19.856L27.141,85.619c-5.175-14.083-7.635-21.341-8.917-25.4-.319-1-1.375-4.372-3-8.85-1.1-3.011-2.075-5.463-2.74-7.1a20.11,20.11,0,0,0,4.572-3.139c6.044-5.538,6.851-13.24,7-15.834" transform="translate(42.864 86.599)" fill="#e2a56a"/>
          <path id="Path_2233" data-name="Path 2233" d="M29.391,15.889c-.47-.745-.944-1.494-1.41-2.244q.7,1.117,1.41,2.244" transform="translate(96.089 46.857)" fill="#eabb87"/>
          <path id="Path_2234" data-name="Path 2234" d="M27.985,18.374c.439-.82.869-1.641,1.3-2.456-.439.82-.869,1.636-1.3,2.456" transform="translate(96.102 54.663)" fill="#eabb87"/>
          <path id="Path_2235" data-name="Path 2235" d="M45.361,30.686S9.941,35.449,6.421,55.335.846,99.246.846,99.246l4.766,1.744,8.164.816H33.322l126.378.131s.621-54.681-22.374-63.381-24.436-7.87-24.436-7.87L127.8,53.056l-25.27-4.141L79.849,99.246l-25.163-49.3-22.166,2.7Z" transform="translate(0 105.306)" fill="#e2e3e3"/>
          <path id="Path_2236" data-name="Path 2236" d="M77.789,29.241l-22.6,70.608L30.3,30.451l-9.981,5.126L7.483,57.534l22.161-2.7,25.168,49.3L78.082,53.9l24.68,4.044L87.85,35.577Z" transform="translate(25.696 100.413)" fill="#fff"/>
          <path id="Path_2237" data-name="Path 2237" d="M95.714,56.532c-2.5.168-3.144-1.295-3.658-3.49a119.555,119.555,0,0,0-4.2-15c-5.268-13.9-7.13-14.269-18.446-5.268A60.3,60.3,0,0,1,43.968,44.6C31.974,47.1,19.922,49.083,9.826,56.78,3.317,39.013,15.4,13.393,34.639,4.152c19.918-9.573,43.254-2.124,54.885,17.5,6.434,10.855,7.879,22.583,6.19,34.878" transform="translate(27.642 -0.003)" fill="#6d4f3b"/>
        </g>
      </g>
    </g>
  </g>
</svg>
