<svg xmlns="http://www.w3.org/2000/svg" width="38" height="38" viewBox="0 0 38 38">
  <g id="Сгруппировать_425" data-name="Сгруппировать 425" transform="translate(-920 -307)">
    <circle id="Эллипс_79" data-name="Эллипс 79" cx="19" cy="19" r="19" transform="translate(920 307)" fill="#c5c5c5"/>
    <g id="user_4_" data-name="user (4)" transform="translate(933.089 319.331)">
      <path id="Контур_102" data-name="Контур 102" d="M91.253,8.363a4.1,4.1,0,0,0,2.985-1.225,4.027,4.027,0,0,0,1.237-2.957,4.028,4.028,0,0,0-1.237-2.957,4.249,4.249,0,0,0-5.969,0,4.027,4.027,0,0,0-1.237,2.956,4.027,4.027,0,0,0,1.237,2.957A4.105,4.105,0,0,0,91.253,8.363Zm0,0" transform="translate(-85.617 -2.169)" fill="#fff"/>
      <path id="Контур_103" data-name="Контур 103" d="M15.022,252.682a11.582,11.582,0,0,0-.146-1.186A9.652,9.652,0,0,0,14.6,250.3a6.011,6.011,0,0,0-.471-1.112,4.181,4.181,0,0,0-.711-.963,3.121,3.121,0,0,0-1.021-.667,3.41,3.41,0,0,0-1.3-.245,1.3,1.3,0,0,0-.707.312c-.212.144-.46.31-.736.493a4.139,4.139,0,0,1-.952.436,3.564,3.564,0,0,1-2.33,0,4.128,4.128,0,0,1-.952-.436c-.274-.182-.522-.348-.737-.494a1.294,1.294,0,0,0-.706-.312,3.406,3.406,0,0,0-1.3.246,3.119,3.119,0,0,0-1.021.667,4.182,4.182,0,0,0-.711.963A6.023,6.023,0,0,0,.463,250.3a9.675,9.675,0,0,0-.28,1.192,11.541,11.541,0,0,0-.146,1.186c-.024.359-.036.732-.036,1.108a3.182,3.182,0,0,0,.89,2.358,3.135,3.135,0,0,0,2.294.87h8.691a3.134,3.134,0,0,0,2.294-.87,3.181,3.181,0,0,0,.89-2.358c0-.378-.012-.751-.036-1.108Zm0,0" transform="translate(-1.774 -240.78)" fill="#fff"/>
    </g>
  </g>
</svg>
