<svg xmlns="http://www.w3.org/2000/svg" width="276" height="248.211" viewBox="0 0 276 248.211">
  <g id="Сгруппировать_11018" data-name="Сгруппировать 11018" transform="translate(18679 16770)">
    <rect id="Прямоугольник_1227" data-name="Прямоугольник 1227" width="276" height="248" transform="translate(-18679 -16770)" fill="#fff"/>
    <g id="Сгруппировать_11016" data-name="Сгруппировать 11016" transform="translate(12 338)">
      <path id="Path_2218" data-name="Path 2218" d="M35.666,28.234,80.249,42.262c9.585,3.027,15.767,9.552,17.86,19.253,2.97,13.76,4.922,27.749,8.029,41.48a58.609,58.609,0,0,1,.793,7.031s-3.567.029-7,0c-25.139-.2-50.28-.055-75.419-.029-1.105-4.292.021-8.471.63-12.68Q29.434,67.475,33.7,37.623Z" transform="translate(-18566.102 -16969.953)" fill="#344050"/>
      <path id="Path_2219" data-name="Path 2219" d="M82.331,109.942c-12.5,0-41.431.431-57.835.063-1.318,0-26.559-.063-26.559-.063S4.814,78.185,7.213,65.83c2.5-12.859,9.473-21.276,22.827-24.707C43.945,37.551,57.493,32.592,71.2,28.237c.63,3.153-.259,6.549,1.543,9.506.518,4.221,1.063,8.442,1.552,12.667,2.286,19.9,7.332,39.42,8.033,59.532" transform="translate(-18644.775 -16969.943)" fill="#344050"/>
      <path id="Path_2220" data-name="Path 2220" d="M92.159,56.055c-6.089,9.118-8.7,20.351-17.062,28.079-13.672,7.412-27.344,7.813-41-.009C25,75.972,23.71,62.967,15.21,54.232,9.245,48.105,11.735,40.71,15.552,34c3.991,1.686,2.027,6.553,4.9,10.244,0-9.585-.2-17.864.046-26.127.3-10.131,1.256-10.986,10.449-7.508,14.523,5.493,28.675,5.371,42.877-.879,10.814-4.753,11.1-4.558,12.942,7.228.43,2.728.146,5.589.781,8.25,1.514,6.39-1.2,13.438,3.069,19.365-.705,3.991-4.7,8.43,1.548,11.482" transform="translate(-18606.703 -17039.988)" fill="#eabb87"/>
      <path id="Path_2221" data-name="Path 2221" d="M88.124,66.895c-4.267-5.927-1.556-12.976-3.069-19.37-.634-2.657-.351-5.519-.781-8.246C82.43,27.491,82.146,27.3,71.331,32.052c-14.2,6.244-28.354,6.369-42.877.879C19.262,29.448,18.311,30.308,18,40.438c-.242,8.263-.046,16.542-.046,26.127-2.869-3.691-.905-8.559-4.9-10.244-2.515-12.367,3.2-24.863-.559-37.246-.293-.959.167-2.874.9-3.32C29.868,5.8,46.068-4.948,67.006,2.464,74.121,4.98,78.268,9.559,82.622,15.577c9.565,13.205,11.55,27.2,8.455,42.564-4.146,1.848-2.068,5.8-2.953,8.755" transform="translate(-18604.215 -17062.309)" fill="#3e2d24"/>
      <path id="Path_2222" data-name="Path 2222" d="M26.617,102.758c-.7-20.112-5.748-39.637-8.033-59.532C18.1,39,17.55,34.779,17.032,30.559l39.624-.125Q52.383,60.276,48.1,90.128c-.6,4.2-1.735,8.384-.626,12.671q-10.43-.019-20.859-.042" transform="translate(-18589.061 -16962.76)" fill="#e2e3e3"/>
      <path id="Path_2223" data-name="Path 2223" d="M57.838,48.462q-19.814.063-39.624.129c-1.806-2.961-.913-6.356-1.543-9.51q.476-7.076.959-14.16c13.672,7.829,27.344,7.422,41.009.017q.188,3.613.38,7.232c-.175.2-.538.446-.5.58a8.063,8.063,0,0,0,.626,1.28c.221,1.677.438,3.361.659,5.043Z" transform="translate(-18590.242 -16980.793)" fill="#e2a56a"/>
      <path id="Path_2224" data-name="Path 2224" d="M31.588,22.363c.884-2.953-1.193-6.907,2.953-8.755,8.112,7.345,2.478,13.73-1.405,20.237-6.244-3.053-2.252-7.491-1.548-11.482" transform="translate(-18547.68 -17017.779)" fill="#eabb87"/>
      <path id="Path_2225" data-name="Path 2225" d="M27.1,28.476a7.564,7.564,0,0,1-.626-1.28c-.042-.129.321-.38.5-.575.042.617.083,1.238.129,1.855" transform="translate(-18558.189 -16975.236)" fill="#eabb87"/>
      <path id="Path_2225-2" data-name="Path 2225" d="M27.749,29.159a7.745,7.745,0,0,1-.641-1.311c-.043-.132.329-.389.508-.589.043.632.085,1.268.132,1.9" transform="translate(-18540.338 -17001.838)" fill="#eabb87"/>
    </g>
  </g>
</svg>
