<svg id="Сгруппировать_542" data-name="Сгруппировать 542" xmlns="http://www.w3.org/2000/svg" xmlns:xlink="http://www.w3.org/1999/xlink" width="121.764" height="169.117" viewBox="0 0 121.764 169.117">
  <defs>
    <linearGradient id="linear-gradient" x2="1.01" y2="1" gradientUnits="objectBoundingBox">
      <stop offset="0" stop-color="#ffc500"/>
      <stop offset="1" stop-color="#ff4a51"/>
    </linearGradient>
    <linearGradient id="linear-gradient-2" x1="0.5" x2="0.5" y2="1" gradientUnits="objectBoundingBox">
      <stop offset="0" stop-color="#ffe180"/>
      <stop offset="1" stop-color="#f2e1a5"/>
    </linearGradient>
  </defs>
  <g id="Сгруппировать_360" data-name="Сгруппировать 360" transform="translate(15.156 14.359)">
    <path id="Контур_329" data-name="Контур 329" d="M82.337,68.256s2.824-2.593,8.209,2.1l2.5-3.892S87,61.68,82.337,68.256Z" transform="translate(-82.337 -56.891)" fill="#707070"/>
    <path id="Контур_330" data-name="Контур 330" d="M91.553,57.861s-3.342,4.151,1.47,8.879l-3.246,3.278S82.334,60.9,91.553,57.861Z" transform="translate(-81.692 -57.861)" fill="#707070"/>
  </g>
  <path id="Контур_331" data-name="Контур 331" d="M78.962,158.382a28.539,28.539,0,0,1,15.059-11.515l22.052-8.173h21.05l22.045,8.173a28.548,28.548,0,0,1,15.06,11.515Z" transform="translate(-67.654 -32.174)" fill="#ffe180"/>
  <path id="Контур_332" data-name="Контур 332" d="M146.655,200.349h34.067c0-5.819-.38-14.11-.38-14.11-2-34.837-27.391-40.314-27.391-40.314-19.8-4.793-9.006,25.827-9.006,25.827C143.428,179.13,144.526,189.056,146.655,200.349Z" transform="translate(-58.958 -31.232)" fill="#ffd23e"/>
  <g id="Сгруппировать_361" data-name="Сгруппировать 361" transform="translate(44.494 85.845)">
    <rect id="Прямоугольник_300" data-name="Прямоугольник 300" width="28.899" height="28.176" fill="#f4e19d"/>
  </g>
  <g id="Сгруппировать_362" data-name="Сгруппировать 362" transform="translate(44.494 85.845)">
    <path id="Контур_333" data-name="Контур 333" d="M136.968,133.657v-13.1h-28.9v6.486C116.312,133.908,126.242,134.778,136.968,133.657Z" transform="translate(-108.069 -120.56)" fill="#e8dcb7"/>
  </g>
  <path id="Контур_334" data-name="Контур 334" d="M172.881,201.112c.554-15.192.385-19.365.25-24.547-.3-11.544-2.771-21.3-10.379-29.868l-.037-.009-20.6-6.718s4.333,7.582-14.6,7.582c0,0-12.473-.486-14.3-7.582l-20.922,6.718s-17.885,4.4-20.952,23.225l10.514,19.332-.374,11.868Z" transform="translate(-68.722 -31.995)" fill="url(#linear-gradient)"/>
  <g id="Сгруппировать_363" data-name="Сгруппировать 363" transform="translate(19.452 0)">
    <path id="Контур_335" data-name="Контур 335" d="M155.183,93.408c.822-6.481-.559-12.687-.49-19.075.047-4.286-.791-10.754-6.12-11.3-7.384-.755-9.663,12-10.1,17.522-.6,7.617,1.288,15.85,2.757,23.3.529,2.692.474,8.071,3.5,9.372,2.592,1.111,5.241-1.507,6.566-3.453C154.5,105.082,154.5,98.833,155.183,93.408Z" transform="translate(-78.782 -42.781)" fill="#707070"/>
    <path id="Контур_336" data-name="Контур 336" d="M155.821,125.8c-2.921,11.429-8.064,14.578-8.064,14.578l-6.9,1.347c-3.969-.5-10.817-2.121-10.817-2.121-15.76-5.358-20.326-6.8-22.77-12.795-.1-.253-12.423-43.019-12.423-43.019-2.016-22.01,21.024-26.59,24.5-27.165,3.441-.795,25.378-6.891,31.859,14.24C151.209,70.864,160.782,95.347,155.821,125.8Z" transform="translate(-84.898 -43.874)" fill="url(#linear-gradient-2)"/>
    <path id="Контур_337" data-name="Контур 337" d="M164.274,50.957c1.248,6.834.08,16.293-5.215,20.656-5.75,4.735-10.684,3.448-17.6,4.985-7.193,1.6-14.554,2.231-21.784,3.63-5.063.981-10.908,1.541-13.238,6.913-3.081,7.1-3.688,16.36-1.613,23.276,1.725,5.761,2.255,11.365,4.149,18.865a66.753,66.753,0,0,1-11.611-13.3c-3.259-5.732-3.259-5.732-6.933-15.7-2.155-5.843-4.017-10.983-4.295-17.009-.358-7.772,3.411-11.16,7.56-18.3,3.9-6.71,9.37-11.355,16.5-13.481,0,0,36.17,2.032,35.489-6.23,0,0,8.687,2.218,7.034,7.994,0,0,9.088-1.659,7.16-7.994A8.48,8.48,0,0,1,164.274,50.957Z" transform="translate(-86.105 -45.267)" fill="#707070"/>
    <path id="Контур_338" data-name="Контур 338" d="M105.155,101.728s-3.9-8.488-10.018-3.459c0,0-2.788,2.174.645,7.856,0,0,4.987,8.165,10.961,3.64Z" transform="translate(-84.989 -38.062)" fill="url(#linear-gradient-2)"/>
    <path id="Контур_339" data-name="Контур 339" d="M104.125,83.746s.025,15.195,2.817,23.254l-2.961.587s-1.557-10.421-6.922-10.544Z" transform="translate(-84.57 -39.875)" fill="#707070"/>
  </g>
  <path id="Контур_340" data-name="Контур 340" d="M100.889,200.115H69.044c.01,0,.111-7.56.128-8.1a150.719,150.719,0,0,1,2.049-22.246c1.914-10.472,7-19.757,18.192-22.419,5.123-1.219,9.678,1.882,12.453,6.1C101.865,153.451,106.932,159.7,100.889,200.115Z" transform="translate(-69.044 -30.998)" fill="#ffd23e"/>
</svg>
