<svg id="star" xmlns="http://www.w3.org/2000/svg" width="34.484" height="34.484" viewBox="0 0 34.484 34.484">
  <path id="Icon_ionic-ios-star" data-name="Icon ionic-ios-star" d="M35.426,15.312H24.1L20.662,4.254a1.218,1.218,0,0,0-2.34,0L14.881,15.312H3.482A1.285,1.285,0,0,0,2.25,16.638a1.047,1.047,0,0,0,.023.224,1.3,1.3,0,0,0,.516.937l9.306,7.063L8.523,36.044a1.391,1.391,0,0,0,.423,1.492,1.151,1.151,0,0,0,.693.323,1.443,1.443,0,0,0,.77-.3l9.083-6.971,9.083,6.971a1.379,1.379,0,0,0,.77.3,1.069,1.069,0,0,0,.685-.323,1.374,1.374,0,0,0,.423-1.492L26.882,24.861l9.229-7.129.223-.207a1.434,1.434,0,0,0,.4-.887A1.35,1.35,0,0,0,35.426,15.312Z" transform="translate(-2.25 -3.375)" fill="#ffd23e"/>
</svg>
