<svg id="Сгруппировать_541" data-name="Сгруппировать 541" xmlns="http://www.w3.org/2000/svg" xmlns:xlink="http://www.w3.org/1999/xlink" width="116.786" height="169.117" viewBox="0 0 116.786 169.117">
  <defs>
    <linearGradient id="linear-gradient" x2="1.01" y2="1" gradientUnits="objectBoundingBox">
      <stop offset="0" stop-color="#ffc500"/>
      <stop offset="1" stop-color="#ff4a51"/>
    </linearGradient>
    <linearGradient id="linear-gradient-2" x1="0.5" x2="0.5" y2="1" gradientUnits="objectBoundingBox">
      <stop offset="0" stop-color="#ffe180"/>
      <stop offset="1" stop-color="#f2e1a5"/>
    </linearGradient>
  </defs>
  <path id="Контур_341" data-name="Контур 341" d="M288.678,146.476c5.17-1.877,8.429-6.2,14.566-5.657,10.916.963,18.661,13.233,29.166,4.909,12.715-10.082,9.376-70.728,3.863-84.464C331.6,49.613,322.98,61,310.682,57.088c-14.29-4.547-26.609,6.728-34,18.436a70.619,70.619,0,0,0-10.514,42.015C267.219,130.755,269.607,153.4,288.678,146.476Z" transform="translate(-239.887 -41.458)" fill="#707070"/>
  <g id="Сгруппировать_365" data-name="Сгруппировать 365" transform="translate(0 119.996)">
    <path id="Контур_342" data-name="Контур 342" d="M327.77,198.987h26.793l4.791-19.346s3.894-29.365-16.241-29.775c0,0-10.451,7.327-13.3,24.561C329.813,174.427,327.559,188.2,327.77,198.987Z" transform="translate(-327.756 -149.866)" fill="#ffd23e"/>
  </g>
  <g id="Сгруппировать_366" data-name="Сгруппировать 366" transform="translate(89.157 124.748)">
    <path id="Контур_343" data-name="Контур 343" d="M256.1,198.466l-3.615-14.593s-3.894-29.365,16.242-29.775c0,0,12.075,8.8,11.018,44.369H256.1" transform="translate(-252.186 -154.097)" fill="#ffd23e"/>
  </g>
  <g id="Сгруппировать_367" data-name="Сгруппировать 367" transform="translate(48.389 77.542)">
    <rect id="Прямоугольник_301" data-name="Прямоугольник 301" width="24.447" height="35.79" transform="translate(0)" fill="#f4e19d"/>
  </g>
  <g id="Сгруппировать_368" data-name="Сгруппировать 368" transform="translate(48.389 77.542)">
    <path id="Контур_344" data-name="Контур 344" d="M291.313,126.678V112.071H315.76v21.041C307.695,132.866,298.127,131.407,291.313,126.678Z" transform="translate(-291.313 -112.071)" fill="#e8dcb7"/>
  </g>
  <path id="Контур_345" data-name="Контур 345" d="M356.323,156.12a26.748,26.748,0,0,0-14.107-10.789l-20.661-7.654H301.836l-25.261,7.654a26.745,26.745,0,0,0-14.11,10.789Z" transform="translate(-251.084 -31.372)" fill="#f4e19d"/>
  <path id="Контур_346" data-name="Контур 346" d="M352.683,200.29h-81.4L271.8,185l-14.164-19.673A35.1,35.1,0,0,1,278,145.132l19.894-5.663s-1.186,6.477,15.228,6.477c0,0,13.187,0,14.763-6.652l15.756,5.839a33.434,33.434,0,0,1,17.85,15.2L352.683,185Z" transform="translate(-252.503 -31.173)" fill="url(#linear-gradient)"/>
  <path id="Контур_347" data-name="Контур 347" d="M280.162,122.275a16.121,16.121,0,0,0,3.629,5.294,44.77,44.77,0,0,0,14.015,9.212c6.392,2.623,16.043,2.959,21.123-2.307,4.118-4.268,6.376-10.733,8.163-16.275,3.475-10.78,3.432-22.555,2.548-33.748-.2-2.552-.461-5.109-.885-7.635-3.979-24.414-24.866-24.36-24.866-24.36-15.774-.686-30.172,6.767-32.595,23.39-.932,6.366.3,13.2.615,19.568a51.225,51.225,0,0,0,2.306,13.806C275.741,113.773,278.26,117.881,280.162,122.275Z" transform="translate(-234.436 -41.882)" fill="url(#linear-gradient-2)"/>
  <path id="Контур_348" data-name="Контур 348" d="M343.582,100c5.895-18.254,1.139-39.717-5.907-46.432-19.959-19.04-56.821-11.794-68.085,17.971-3.479,9.193-1.845,43.476-.268,54.014,2.112,14.117,7.3,23.789,18.023,23.789-.286-11.64.607-24.538-.424-38.769-1.026-14.122.854-14.468,12.6-21.038A34.975,34.975,0,0,0,312.4,77.551c4.493-6.567,1.113-8.864,10.007-8.566C322.4,68.985,343.076,68.28,343.582,100Z" transform="translate(-246.69 -43.037)" fill="#707070"/>
  <path id="Контур_349" data-name="Контур 349" d="M327.653,98.693s-2.086-8.687-8.766-5.1c0,0-3.016,1.527-.842,7.491,0,0,3.17,8.583,9.615,5.444Z" transform="translate(-283.965 -36.913)" fill="url(#linear-gradient-2)"/>
</svg>
