<svg xmlns="http://www.w3.org/2000/svg" xmlns:xlink="http://www.w3.org/1999/xlink" width="84.784" height="117.756" viewBox="0 0 84.784 117.756">
  <defs>
    <linearGradient id="linear-gradient" x2="1.01" y2="1" gradientUnits="objectBoundingBox">
      <stop offset="0" stop-color="#ffc500"/>
      <stop offset="1" stop-color="#ff4a51"/>
    </linearGradient>
    <linearGradient id="linear-gradient-2" x1="0.5" x2="0.5" y2="1" gradientUnits="objectBoundingBox">
      <stop offset="0" stop-color="#ffe180"/>
      <stop offset="1" stop-color="#f2e1a5"/>
    </linearGradient>
  </defs>
  <g id="Group_371" data-name="Group 371" transform="translate(0)">
    <g id="Group_360" data-name="Group 360" transform="translate(10.553 9.998)">
      <path id="Path_329" data-name="Path 329" d="M82.337,67.2S84.3,65.4,88.053,68.663l1.743-2.71S85.586,62.622,82.337,67.2Z" transform="translate(-82.337 -59.288)" fill="#707070"/>
      <path id="Path_330" data-name="Path 330" d="M90.152,57.861s-2.327,2.891,1.023,6.183l-2.26,2.282S83.732,59.975,90.152,57.861Z" transform="translate(-83.285 -57.861)" fill="#707070"/>
    </g>
    <path id="Path_331" data-name="Path 331" d="M78.962,152.4a19.872,19.872,0,0,1,10.486-8.018l15.354-5.691H119.46l15.35,5.691A19.878,19.878,0,0,1,145.3,152.4Z" transform="translate(-71.089 -64.524)" fill="#ffe180"/>
    <path id="Path_332" data-name="Path 332" d="M144.941,183.666h23.721c0-4.052-.264-9.825-.264-9.825C167,149.584,149.325,145.77,149.325,145.77c-13.784-3.337-6.271,17.983-6.271,17.983C142.694,168.891,143.458,175.8,144.941,183.666Z" transform="translate(-83.878 -65.909)" fill="#ffd23e"/>
    <g id="Group_361" data-name="Group 361" transform="translate(30.981 59.774)">
      <rect id="Rectangle_300" data-name="Rectangle 300" width="20.122" height="19.619" fill="#f4e19d"/>
    </g>
    <g id="Group_362" data-name="Group 362" transform="translate(30.981 59.774)">
      <path id="Path_333" data-name="Path 333" d="M128.192,129.679V120.56H108.069v4.516C113.809,129.854,120.723,130.46,128.192,129.679Z" transform="translate(-108.069 -120.56)" fill="#e8dcb7"/>
    </g>
    <path id="Path_334" data-name="Path 334" d="M142.044,182.543c.386-10.578.268-13.484.174-17.092-.21-8.038-1.929-14.831-7.227-20.8l-.025-.006L120.62,139.97s3.017,5.279-10.167,5.279c0,0-8.685-.338-9.954-5.279l-14.568,4.678s-12.454,3.063-14.589,16.171l7.321,13.461-.26,8.264Z" transform="translate(-69.518 -64.787)" fill="url(#linear-gradient)"/>
    <g id="Group_363" data-name="Group 363" transform="translate(13.544 0)">
      <path id="Path_335" data-name="Path 335" d="M150.074,84.175c.572-4.512-.389-8.834-.341-13.282.033-2.984-.551-7.488-4.262-7.866-5.141-.526-6.728,8.353-7.031,12.2-.418,5.3.9,11.037,1.92,16.226.368,1.874.33,5.62,2.44,6.526,1.8.773,3.649-1.049,4.572-2.4C149.595,92.3,149.6,87.952,150.074,84.175Z" transform="translate(-96.876 -48.923)" fill="#707070"/>
      <path id="Path_336" data-name="Path 336" d="M137.265,104.359c-2.034,7.958-5.615,10.151-5.615,10.151l-4.8.938c-2.764-.351-7.532-1.477-7.532-1.477-10.974-3.73-14.153-4.738-15.855-8.909-.071-.176-8.65-29.954-8.65-29.954-1.4-15.326,14.639-18.515,17.061-18.915,2.4-.553,17.671-4.8,22.183,9.916A79.912,79.912,0,0,1,137.265,104.359Z" transform="translate(-87.881 -47.315)" fill="url(#linear-gradient-2)"/>
      <path id="Path_337" data-name="Path 337" d="M140.534,49.229c.869,4.759.056,11.345-3.631,14.383-4,3.3-7.439,2.4-12.258,3.471-5.009,1.112-10.134,1.554-15.168,2.528-3.526.683-7.6,1.073-9.218,4.813a25.288,25.288,0,0,0-1.123,16.207c1.2,4.011,1.57,7.913,2.889,13.136a46.48,46.48,0,0,1-8.085-9.259c-2.269-3.991-2.269-3.991-4.828-10.933-1.5-4.069-2.8-7.647-2.991-11.843-.249-5.412,2.375-7.77,5.264-12.739A19.56,19.56,0,0,1,102.877,49.6s25.185,1.415,24.711-4.338c0,0,6.049,1.544,4.9,5.566,0,0,6.328-1.155,4.986-5.566A5.9,5.9,0,0,1,140.534,49.229Z" transform="translate(-86.105 -45.267)" fill="#707070"/>
      <path id="Path_338" data-name="Path 338" d="M101.788,100.194s-2.713-5.91-6.976-2.409c0,0-1.941,1.514.449,5.47,0,0,3.472,5.685,7.632,2.535Z" transform="translate(-87.747 -55.863)" fill="url(#linear-gradient-2)"/>
      <path id="Path_339" data-name="Path 339" d="M101.98,83.746s.017,10.58,1.962,16.192l-2.062.409s-1.084-7.256-4.82-7.342Z" transform="translate(-88.363 -53.198)" fill="#707070"/>
    </g>
    <path id="Path_340" data-name="Path 340" d="M91.218,184.01H69.044c.007,0,.077-5.264.089-5.637a104.946,104.946,0,0,1,1.427-15.49c1.333-7.292,4.874-13.757,12.667-15.61,3.567-.849,6.738,1.311,8.671,4.246C91.9,151.518,95.425,155.869,91.218,184.01Z" transform="translate(-69.044 -66.254)" fill="#ffd23e"/>
  </g>
</svg>
