<svg xmlns="http://www.w3.org/2000/svg" xmlns:xlink="http://www.w3.org/1999/xlink" width="59.183" height="53.403" viewBox="0 0 59.183 53.403">
  <defs>
    <linearGradient id="linear-gradient" x2="1.01" y2="1" gradientUnits="objectBoundingBox">
      <stop offset="0" stop-color="#ffc500"/>
      <stop offset="1" stop-color="#ff4a51"/>
    </linearGradient>
  </defs>
  <g id="calendar" transform="translate(0 -25)">
    <path id="Path_308" data-name="Path 308" d="M102.433,249h-3.7a1.734,1.734,0,1,0,0,3.468h3.7a1.734,1.734,0,1,0,0-3.468Z" transform="translate(-85.788 -198.107)" fill="url(#linear-gradient)"/>
    <path id="Path_309" data-name="Path 309" d="M102.433,313h-3.7a1.734,1.734,0,1,0,0,3.468h3.7a1.734,1.734,0,1,0,0-3.468Z" transform="translate(-85.788 -254.71)" fill="url(#linear-gradient)"/>
    <path id="Path_310" data-name="Path 310" d="M102.433,377h-3.7a1.734,1.734,0,1,0,0,3.468h3.7a1.734,1.734,0,1,0,0-3.468Z" transform="translate(-85.788 -311.312)" fill="url(#linear-gradient)"/>
    <path id="Path_311" data-name="Path 311" d="M230.433,249h-3.7a1.734,1.734,0,1,0,0,3.468h3.7a1.734,1.734,0,0,0,0-3.468Z" transform="translate(-198.992 -198.107)" fill="url(#linear-gradient)"/>
    <path id="Path_312" data-name="Path 312" d="M230.433,313h-3.7a1.734,1.734,0,1,0,0,3.468h3.7a1.734,1.734,0,0,0,0-3.468Z" transform="translate(-198.992 -254.71)" fill="url(#linear-gradient)"/>
    <path id="Path_313" data-name="Path 313" d="M230.433,377h-3.7a1.734,1.734,0,1,0,0,3.468h3.7a1.734,1.734,0,0,0,0-3.468Z" transform="translate(-198.992 -311.312)" fill="url(#linear-gradient)"/>
    <path id="Path_314" data-name="Path 314" d="M358.433,249h-3.7a1.734,1.734,0,1,0,0,3.468h3.7a1.734,1.734,0,1,0,0-3.468Z" transform="translate(-312.196 -198.107)" fill="url(#linear-gradient)"/>
    <path id="Path_315" data-name="Path 315" d="M358.433,313h-3.7a1.734,1.734,0,1,0,0,3.468h3.7a1.734,1.734,0,1,0,0-3.468Z" transform="translate(-312.196 -254.71)" fill="url(#linear-gradient)"/>
    <path id="Path_316" data-name="Path 316" d="M358.433,377h-3.7a1.734,1.734,0,1,0,0,3.468h3.7a1.734,1.734,0,1,0,0-3.468Z" transform="translate(-312.196 -311.312)" fill="url(#linear-gradient)"/>
    <path id="Path_317" data-name="Path 317" d="M53.981,29.624H49.82v-2.89a1.734,1.734,0,1,0-3.468,0v2.89H31.325v-2.89a1.734,1.734,0,1,0-3.468,0v2.89H12.831v-2.89a1.734,1.734,0,1,0-3.468,0v2.89H5.2a5.208,5.208,0,0,0-5.2,5.2V73.2a5.208,5.208,0,0,0,5.2,5.2h48.78a5.208,5.208,0,0,0,5.2-5.2V34.825A5.208,5.208,0,0,0,53.981,29.624Zm-50.514,5.2A1.736,1.736,0,0,1,5.2,33.091H9.363v2.89a1.734,1.734,0,0,0,3.468,0v-2.89H27.858v2.89a1.734,1.734,0,0,0,3.468,0v-2.89H46.352v2.89a1.734,1.734,0,1,0,3.468,0v-2.89h4.161a1.736,1.736,0,0,1,1.734,1.734v6.82H3.468Zm50.514,40.11H5.2A1.736,1.736,0,0,1,3.468,73.2V45.113H55.715V73.2A1.736,1.736,0,0,1,53.981,74.936Z" fill="url(#linear-gradient)"/>
  </g>
</svg>
