<svg xmlns="http://www.w3.org/2000/svg" xmlns:xlink="http://www.w3.org/1999/xlink" width="87.127" height="99.787" viewBox="0 0 87.127 99.787">
  <defs>
    <linearGradient id="linear-gradient" x2="1.01" y2="1" gradientUnits="objectBoundingBox">
      <stop offset="0" stop-color="#ffc500"/>
      <stop offset="1" stop-color="#ff4a51"/>
    </linearGradient>
  </defs>
  <g id="Сгруппировать_528" data-name="Сгруппировать 528" transform="translate(15928.532 17490.243)">
    <path id="Контур_391" data-name="Контур 391" d="M274.667-877.274c-7.773,2.43-19.158,5.959-29.129,9.021-3.246,1.015-6.159,1.914-6.475,2.014-.383.116-.5.216-.333.3.133.066,4.111,1.3,8.838,2.763l8.622,2.647v10.4l.017,10.4.7-1.332a17.678,17.678,0,0,1,9.837-8.739c.949-.316,1.165-.333,1.282-.15a38.065,38.065,0,0,0,3,3.845,29.693,29.693,0,0,0,15.363,8.789,29.287,29.287,0,0,0,20.024-2.863l1.548-.849.033-9.737.05-9.721,3.412-1.065c1.881-.583,3.429-1.065,3.462-1.065.017,0,.033,1.481.033,3.3v3.279l-.782.583a4.109,4.109,0,0,0-1.3,1.581l-.5,1-.05,20.756-.033,20.773h7.657l-.033-20.856-.05-20.839-.383-.782c-.383-.766-1.531-1.964-1.864-1.964a18.537,18.537,0,0,1-.166-3.828c0-2.114.033-3.828.067-3.828.15,0,8.156-2.5,8.206-2.563.083-.083,1.481.366-14.015-4.428-7.141-2.214-16.612-5.143-21.056-6.508-4.444-1.381-8.189-2.53-8.322-2.563S278.745-878.539,274.667-877.274Z" transform="translate(-16167.188 -16610.738)" fill="url(#linear-gradient)"/>
    <path id="Контур_392" data-name="Контур 392" d="M292.293-502.068a41.7,41.7,0,0,0-11.718,12.217,48.42,48.42,0,0,0-4.311,9.354,47.727,47.727,0,0,0-2.347,12.733l-.117,1.881h75.285L349-467.213c-.05-.732-.133-1.947-.183-2.713a50.463,50.463,0,0,0-1.248-7.424,41.989,41.989,0,0,0-16.961-24.718,14.142,14.142,0,0,0-1.515-.932,11.118,11.118,0,0,0-1.382,1.232c-5.227,5.077-11.285,8.089-16.262,8.089s-11.036-3.013-16.262-8.089A11.111,11.111,0,0,0,293.807-503,12.523,12.523,0,0,0,292.293-502.068Zm7.973,12.733c4.794,3.212,9.471,4.494,13.682,3.745a26.95,26.95,0,0,0,11.618-5.926,8.39,8.39,0,0,1,1.2-.932c0,.216-15.18,26.316-15.313,26.316s-15.313-26.1-15.313-26.316a9.029,9.029,0,0,1,1.215.932A34.871,34.871,0,0,0,300.266-489.335Z" transform="translate(-16196.482 -16924.574)" fill="url(#linear-gradient)"/>
  </g>
</svg>
