<svg xmlns="http://www.w3.org/2000/svg" xmlns:xlink="http://www.w3.org/1999/xlink" width="109.68" height="31.546" viewBox="0 0 109.68 31.546">
  <defs>
    <linearGradient id="linear-gradient" x1="0.089" y1="0.2" x2="2.153" y2="0.848" gradientUnits="objectBoundingBox">
      <stop offset="0" stop-color="#fff"/>
      <stop offset="0" stop-color="#f9f9f9"/>
      <stop offset="1" stop-color="#655d5d"/>
    </linearGradient>
    <linearGradient id="linear-gradient-5" x1="0.5" x2="-0.052" y2="0.593" gradientUnits="objectBoundingBox">
      <stop offset="0" stop-color="#feca38"/>
      <stop offset="1" stop-color="#fff"/>
    </linearGradient>
    <linearGradient id="linear-gradient-6" x1="0.922" y1="0.198" x2="-0.043" y2="1" gradientUnits="objectBoundingBox">
      <stop offset="0" stop-color="#febe0c"/>
      <stop offset="1" stop-color="#fff"/>
    </linearGradient>
    <linearGradient id="linear-gradient-7" x1="-0.311" y1="2.099" x2="1.62" y2="-0.213" gradientUnits="objectBoundingBox">
      <stop offset="0" stop-color="#fed153"/>
      <stop offset="1" stop-color="#fffaeb"/>
    </linearGradient>
    <linearGradient id="linear-gradient-8" x1="0.57" y1="1.888" x2="6.18" y2="-0.078" xlink:href="#linear-gradient-7"/>
    <linearGradient id="linear-gradient-9" x1="1.797" y1="4.453" x2="0.057" y2="0.036" xlink:href="#linear-gradient-7"/>
  </defs>
  <g id="Group_238" data-name="Group 238" transform="translate(-240 -16.203)">
    <path id="Path_238" data-name="Path 238" d="M1.26-16.2H4.78A4.832,4.832,0,0,1,8.49-15a5.437,5.437,0,0,1,1.09,3.74V-5.3A6.226,6.226,0,0,1,8.51-1.31,4.334,4.334,0,0,1,4.96,0H1.26ZM4.8-1.62a2.585,2.585,0,0,0,1.71-.46,2.028,2.028,0,0,0,.66-1.25A16.042,16.042,0,0,0,7.3-5.72v-5.26a9.91,9.91,0,0,0-.17-2.11,1.675,1.675,0,0,0-.71-1.08,3.156,3.156,0,0,0-1.68-.35H3.52v12.9ZM13.7.16a1.993,1.993,0,0,1-1.19-.38,2.6,2.6,0,0,1-.83-1,2.949,2.949,0,0,1-.3-1.3,3.846,3.846,0,0,1,.58-2.21,4.29,4.29,0,0,1,1.48-1.35,22.8,22.8,0,0,1,2.5-1.14v-.82a3.991,3.991,0,0,0-.23-1.61.932.932,0,0,0-.93-.47q-1.22,0-1.22,1.64v.58l-2.12-.08a4.2,4.2,0,0,1,.88-2.83,3.376,3.376,0,0,1,2.6-.91,2.949,2.949,0,0,1,2.41.91,4.257,4.257,0,0,1,.75,2.75v5.28A20.817,20.817,0,0,0,18.28,0H16.32q-.22-1.14-.28-1.7a2.92,2.92,0,0,1-.83,1.32A2.15,2.15,0,0,1,13.7.16Zm.84-1.84a1.281,1.281,0,0,0,.82-.33,2.583,2.583,0,0,0,.58-.63V-5.92a12.58,12.58,0,0,0-1.33.83,3.324,3.324,0,0,0-.78.81,1.922,1.922,0,0,0-.31,1.1,2,2,0,0,0,.26,1.11A.856.856,0,0,0,14.54-1.68ZM22.82.16a3.051,3.051,0,0,1-2.27-.88,3.652,3.652,0,0,1-.99-2.36l1.78-.54a3.8,3.8,0,0,0,.55,1.66A1.287,1.287,0,0,0,23-1.42a1.136,1.136,0,0,0,.87-.33,1.247,1.247,0,0,0,.31-.89,1.836,1.836,0,0,0-.22-.9,3.019,3.019,0,0,0-.72-.82l-1.98-1.7a4.676,4.676,0,0,1-1.05-1.23,3.169,3.169,0,0,1-.37-1.59,2.725,2.725,0,0,1,.8-2.09,3.06,3.06,0,0,1,2.18-.75,2.617,2.617,0,0,1,2.07.85,3.711,3.711,0,0,1,.87,2.19l-1.44.54a3.891,3.891,0,0,0-.46-1.49,1.059,1.059,0,0,0-.96-.51,1.068,1.068,0,0,0-.83.34,1.2,1.2,0,0,0-.31.84,1.536,1.536,0,0,0,.58,1.16l2.04,1.88A6.87,6.87,0,0,1,25.59-4.5a3.188,3.188,0,0,1,.43,1.7,2.781,2.781,0,0,1-.86,2.2A3.408,3.408,0,0,1,22.82.16Zm6.88,0a1.993,1.993,0,0,1-1.19-.38,2.6,2.6,0,0,1-.83-1,2.949,2.949,0,0,1-.3-1.3,3.846,3.846,0,0,1,.58-2.21,4.29,4.29,0,0,1,1.48-1.35,22.8,22.8,0,0,1,2.5-1.14v-.82a3.991,3.991,0,0,0-.23-1.61.932.932,0,0,0-.93-.47q-1.22,0-1.22,1.64v.58l-2.12-.08a4.2,4.2,0,0,1,.88-2.83,3.376,3.376,0,0,1,2.6-.91,2.949,2.949,0,0,1,2.41.91,4.257,4.257,0,0,1,.75,2.75v5.28A20.817,20.817,0,0,0,34.28,0H32.32q-.22-1.14-.28-1.7a2.92,2.92,0,0,1-.83,1.32A2.15,2.15,0,0,1,29.7.16Zm.84-1.84a1.281,1.281,0,0,0,.82-.33,2.583,2.583,0,0,0,.58-.63V-5.92a12.581,12.581,0,0,0-1.33.83,3.324,3.324,0,0,0-.78.81,1.922,1.922,0,0,0-.31,1.1,2,2,0,0,0,.26,1.11A.856.856,0,0,0,30.54-1.68Zm7.3-4.4L35.3-11.56h2.04l1.7,3.66,1.5-3.66h2.1L40-5.82,42.68,0H40.64L38.82-3.92,37.26,0H35.24ZM47.1.16A2.973,2.973,0,0,1,44.49-.93a5.468,5.468,0,0,1-.77-3.17V-7.46a5.468,5.468,0,0,1,.77-3.17,2.973,2.973,0,0,1,2.61-1.09,2.95,2.95,0,0,1,2.59,1.09,5.468,5.468,0,0,1,.77,3.17V-4.1a5.468,5.468,0,0,1-.77,3.17A2.95,2.95,0,0,1,47.1.16Zm0-1.58a.991.991,0,0,0,.84-.34,1.684,1.684,0,0,0,.32-.84,12.023,12.023,0,0,0,.06-1.36V-7.58a12.3,12.3,0,0,0-.06-1.37,1.7,1.7,0,0,0-.32-.85.991.991,0,0,0-.84-.34,1.02,1.02,0,0,0-.85.34,1.645,1.645,0,0,0-.33.85,12.3,12.3,0,0,0-.06,1.37v3.62a12.022,12.022,0,0,0,.06,1.36,1.633,1.633,0,0,0,.33.84A1.02,1.02,0,0,0,47.1-1.42Zm8,1.58a3.051,3.051,0,0,1-2.27-.88,3.652,3.652,0,0,1-.99-2.36l1.78-.54a3.8,3.8,0,0,0,.55,1.66,1.287,1.287,0,0,0,1.11.54,1.136,1.136,0,0,0,.87-.33,1.247,1.247,0,0,0,.31-.89,1.836,1.836,0,0,0-.22-.9,3.019,3.019,0,0,0-.72-.82l-1.98-1.7a4.676,4.676,0,0,1-1.05-1.23,3.169,3.169,0,0,1-.37-1.59,2.725,2.725,0,0,1,.8-2.09,3.06,3.06,0,0,1,2.18-.75,2.617,2.617,0,0,1,2.07.85,3.711,3.711,0,0,1,.87,2.19l-1.44.54a3.891,3.891,0,0,0-.46-1.49,1.059,1.059,0,0,0-.96-.51,1.068,1.068,0,0,0-.83.34,1.2,1.2,0,0,0-.31.84,1.536,1.536,0,0,0,.58,1.16l2.04,1.88A6.87,6.87,0,0,1,57.87-4.5a3.188,3.188,0,0,1,.43,1.7,2.781,2.781,0,0,1-.86,2.2A3.408,3.408,0,0,1,55.1.16Zm4.7-2.54h2.14V0H59.8ZM65.74.16a1.993,1.993,0,0,1-1.19-.38,2.6,2.6,0,0,1-.83-1,2.948,2.948,0,0,1-.3-1.3A3.846,3.846,0,0,1,64-4.73a4.29,4.29,0,0,1,1.48-1.35,22.8,22.8,0,0,1,2.5-1.14v-.82a3.991,3.991,0,0,0-.23-1.61.932.932,0,0,0-.93-.47q-1.22,0-1.22,1.64v.58l-2.12-.08a4.2,4.2,0,0,1,.88-2.83,3.376,3.376,0,0,1,2.6-.91,2.949,2.949,0,0,1,2.41.91,4.257,4.257,0,0,1,.75,2.75v5.28A20.818,20.818,0,0,0,70.32,0H68.36q-.22-1.14-.28-1.7a2.92,2.92,0,0,1-.83,1.32A2.15,2.15,0,0,1,65.74.16Zm.84-1.84a1.281,1.281,0,0,0,.82-.33,2.583,2.583,0,0,0,.58-.63V-5.92a12.58,12.58,0,0,0-1.33.83,3.324,3.324,0,0,0-.78.81,1.922,1.922,0,0,0-.31,1.1,2,2,0,0,0,.26,1.11A.856.856,0,0,0,66.58-1.68Zm5.6-9.88h1.98v1.1a4.113,4.113,0,0,1,1.27-.97,3.32,3.32,0,0,1,1.45-.33,1.787,1.787,0,0,1,1.88,1.46,3.617,3.617,0,0,1,2.88-1.46,1.853,1.853,0,0,1,1.47.66,3.031,3.031,0,0,1,.57,2.02V0H81.72V-8.94a1.77,1.77,0,0,0-.26-1.11.912.912,0,0,0-.74-.31,1.992,1.992,0,0,0-.92.25,3.167,3.167,0,0,0-.88.69V0H76.96V-8.94a1.77,1.77,0,0,0-.26-1.11.912.912,0,0,0-.74-.31,1.96,1.96,0,0,0-.9.25,3.454,3.454,0,0,0-.9.69V0H72.18Z" transform="translate(266 43)" fill="#fff"/>
    <g id="Group_257" data-name="Group 257" transform="translate(20542 20907.203)">
      <g id="Group_254" data-name="Group 254" transform="translate(-20302 -20891)">
        <g id="education" transform="translate(4.957 17.208)">
          <g id="Group_136" data-name="Group 136" transform="translate(0 0)">
            <g id="Group_135" data-name="Group 135" transform="translate(0 0)">
              <path id="Path_105" data-name="Path 105" d="M.6,0h0A.741.741,0,0,0,.177.122.368.368,0,0,0,0,.419V6.708c0,.231.27.419.6.419A9.561,9.561,0,0,1,5.959,8.514V1.933a.316.316,0,0,0-.083-.212C4.55.229,2,0,.6,0Z" transform="translate(1.969 0)" fill="url(#linear-gradient)"/>
              <path id="Path_106" data-name="Path 106" d="M6.26,6.708V.419a.365.365,0,0,0-.186-.3A.807.807,0,0,0,5.632,0h0C4.158,0,1.48.229.087,1.72A.308.308,0,0,0,0,1.933V8.514A10.442,10.442,0,0,1,5.628,7.127C5.976,7.127,6.26,6.939,6.26,6.708Z" transform="translate(8.861 0)" fill="url(#linear-gradient)"/>
              <path id="Path_107" data-name="Path 107" d="M6.495,0H6.059V6.407a1.436,1.436,0,0,1-1.532,1.3A7.458,7.458,0,0,0,0,9.027a16.94,16.94,0,0,1,6.36.1.682.682,0,0,0,.509-.1.484.484,0,0,0,.226-.4V.511A.562.562,0,0,0,6.495,0Z" transform="translate(9.694 0)" fill="url(#linear-gradient)"/>
              <path id="Path_108" data-name="Path 108" d="M1.036,6.407V0H.6A.562.562,0,0,0,0,.511V8.633a.484.484,0,0,0,.226.4.681.681,0,0,0,.509.1,16.939,16.939,0,0,1,6.36-.1A7.458,7.458,0,0,0,2.568,7.712,1.436,1.436,0,0,1,1.036,6.407Z" transform="translate(0 0)" fill="url(#linear-gradient)"/>
            </g>
          </g>
        </g>
        <g id="university" transform="translate(0 0)">
          <path id="Path_115" data-name="Path 115" d="M.341,6.772l12.924,5.779L26.189,6.772a.573.573,0,0,0,0-1.046L13.5.052a.573.573,0,0,0-.468,0L.341,5.726a.573.573,0,0,0,0,1.046Zm0,0" transform="translate(-0.002 -0.001)" fill="url(#linear-gradient-5)"/>
          <path id="Path_116" data-name="Path 116" d="M90.675,5.724,77.985.049a.572.572,0,0,0-.467,0L76.577.47l11.75,5.254a.573.573,0,0,1,0,1.046l-1.235.552-.064-.048a17.957,17.957,0,0,0-9.244-3.2h-.064a17.957,17.957,0,0,0-9.244,3.2l-.463.343v.576l9.739,4.355,9.739-4.355L90.675,6.77a.573.573,0,0,0,0-1.046Zm0,0" transform="translate(-64.488 0.001)" fill="#ffaf25"/>
          <path id="Path_117" data-name="Path 117" d="M98.977,111.883c2.39-1.228,6.373-1.616,7.8-1.719a.573.573,0,0,0,.532-.572v-5.935a16.9,16.9,0,0,0-8.594-2.979,16.9,16.9,0,0,0-8.594,2.979v5.935a.573.573,0,0,0,.532.571c1.431.1,5.414.49,7.8,1.719a.565.565,0,0,0,.515,0Zm0,0" transform="translate(-85.456 -95.463)" fill="url(#linear-gradient-6)"/>
          <path id="Path_118" data-name="Path 118" d="M105.593,142.835a1.145,1.145,0,0,1-.992,1.135,19.694,19.694,0,0,0-5.389,1.377,1.152,1.152,0,0,1-.985,0c-2.993-1.414-8.1-1.636-8.1-1.636v.664a.573.573,0,0,0,.532.572c1.431.1,5.414.49,7.8,1.718a.565.565,0,0,0,.515,0c2.39-1.228,6.374-1.616,7.8-1.718a.573.573,0,0,0,.532-.572v-5.935a13.424,13.424,0,0,0-1.719-1.079v5.472Zm0,0" transform="translate(-85.455 -130.246)" fill="#ffaf25"/>
          <path id="Path_119" data-name="Path 119" d="M345.97,254.579l-.912-2.4-.911,2.4a.344.344,0,0,0,.321.466h1.18A.344.344,0,0,0,345.97,254.579Zm0,0" transform="translate(-326.296 -239.115)" fill="#ffd664"/>
          <path id="Path_120" data-name="Path 120" d="M341.344,216.89a1.2,1.2,0,1,1-1.2-1.2A1.2,1.2,0,0,1,341.344,216.89Zm0,0" transform="translate(-321.378 -204.513)" fill="#ffd664"/>
          <path id="Path_121" data-name="Path 121" d="M342.594,217.754a1.2,1.2,0,0,1-1.59,1.59,1.2,1.2,0,1,0,1.59-1.59Zm0,0" transform="translate(-323.337 -206.472)" fill="#f9c646"/>
          <path id="Path_122" data-name="Path 122" d="M354.723,43.1V51.9a.43.43,0,1,1-.859,0V42.714Zm0,0" transform="translate(-335.53 -40.501)" fill="#ffd664"/>
        </g>
      </g>
      <rect id="Rectangle_212" data-name="Rectangle 212" width="8.764" height="3.286" transform="translate(-20293.258 -20862.74)" fill="url(#linear-gradient-7)"/>
      <path id="Rectangle_213" data-name="Rectangle 213" d="M.5,0h.6a0,0,0,0,1,0,0V3.286a0,0,0,0,1,0,0H.5a.5.5,0,0,1-.5-.5V.5A.5.5,0,0,1,.5,0Z" transform="translate(-20295.449 -20862.74)" fill="url(#linear-gradient-8)"/>
      <path id="Polygon_2" data-name="Polygon 2" d="M1.643,0,3.286,3.286H0Z" transform="translate(-20280.111 -20862.74) rotate(90)" fill="url(#linear-gradient-9)"/>
    </g>
  </g>
</svg>
