<svg xmlns="http://www.w3.org/2000/svg" xmlns:xlink="http://www.w3.org/1999/xlink" width="32" height="32" viewBox="0 0 32 32">
  <defs>
    <linearGradient id="linear-gradient" x1="0.089" y1="0.2" x2="2.153" y2="0.848" gradientUnits="objectBoundingBox">
      <stop offset="0" stop-color="#fff"/>
      <stop offset="0" stop-color="#f9f9f9"/>
      <stop offset="1" stop-color="#655d5d"/>
    </linearGradient>
    <linearGradient id="linear-gradient-5" x1="0.5" x2="-0.052" y2="0.593" gradientUnits="objectBoundingBox">
      <stop offset="0" stop-color="#feca38"/>
      <stop offset="1" stop-color="#fff"/>
    </linearGradient>
    <linearGradient id="linear-gradient-6" x1="0.922" y1="0.198" x2="-0.043" y2="1" gradientUnits="objectBoundingBox">
      <stop offset="0" stop-color="#febe0c"/>
      <stop offset="1" stop-color="#fff"/>
    </linearGradient>
    <linearGradient id="linear-gradient-7" x1="-0.311" y1="2.099" x2="1.62" y2="-0.213" gradientUnits="objectBoundingBox">
      <stop offset="0" stop-color="#fed153"/>
      <stop offset="1" stop-color="#fffaeb"/>
    </linearGradient>
    <linearGradient id="linear-gradient-8" x1="0.57" y1="1.888" x2="6.18" y2="-0.078" xlink:href="#linear-gradient-7"/>
    <linearGradient id="linear-gradient-9" x1="1.797" y1="4.453" x2="0.057" y2="0.036" xlink:href="#linear-gradient-7"/>
  </defs>
  <g id="Group_256" data-name="Group 256" transform="translate(20305 20892)">
    <rect id="Rectangle_211" data-name="Rectangle 211" width="32" height="32" transform="translate(-20305 -20892)" fill="#011d48"/>
    <g id="Group_255" data-name="Group 255" transform="translate(1.02 0.204)">
      <g id="Group_254" data-name="Group 254" transform="translate(-20302 -20891)">
        <g id="education" transform="translate(4.525 15.708)">
          <g id="Group_136" data-name="Group 136" transform="translate(0 0)">
            <g id="Group_135" data-name="Group 135">
              <path id="Path_105" data-name="Path 105" d="M.547,0h0A.676.676,0,0,0,.161.111.336.336,0,0,0,0,.383v5.74c0,.211.246.382.549.383A8.727,8.727,0,0,1,5.44,7.772V1.764a.289.289,0,0,0-.075-.194C4.154.209,1.826,0,.547,0Z" transform="translate(1.798 0)" fill="url(#linear-gradient)"/>
              <path id="Path_106" data-name="Path 106" d="M5.714,6.123V.383a.333.333,0,0,0-.17-.272A.737.737,0,0,0,5.141,0h0C3.8,0,1.351.209.079,1.57A.281.281,0,0,0,0,1.764V7.772A9.532,9.532,0,0,1,5.137,6.506C5.455,6.505,5.714,6.334,5.714,6.123Z" transform="translate(8.089 0)" fill="url(#linear-gradient)"/>
              <path id="Path_107" data-name="Path 107" d="M5.929,0h-.4V5.849a1.311,1.311,0,0,1-1.4,1.191A6.808,6.808,0,0,0,0,8.24a15.463,15.463,0,0,1,5.806.1.622.622,0,0,0,.465-.09.442.442,0,0,0,.206-.364V.466A.513.513,0,0,0,5.929,0Z" transform="translate(8.849 0)" fill="url(#linear-gradient)"/>
              <path id="Path_108" data-name="Path 108" d="M.946,5.849V0h-.4A.513.513,0,0,0,0,.466V7.88a.442.442,0,0,0,.206.364.622.622,0,0,0,.465.09,15.462,15.462,0,0,1,5.806-.1,6.808,6.808,0,0,0-4.133-1.2A1.311,1.311,0,0,1,.946,5.849Z" transform="translate(0 0)" fill="url(#linear-gradient)"/>
            </g>
          </g>
        </g>
        <g id="university" transform="translate(0 0)">
          <path id="Path_115" data-name="Path 115" d="M.311,6.182l11.8,5.275,11.8-5.275a.523.523,0,0,0,0-.955L12.322.047a.523.523,0,0,0-.427,0L.311,5.227a.523.523,0,0,0,0,.955Zm0,0" transform="translate(-0.002 -0.002)" fill="url(#linear-gradient-5)"/>
          <path id="Path_116" data-name="Path 116" d="M88.7,5.225,77.116.045a.522.522,0,0,0-.427,0L75.83.429l10.726,4.8a.523.523,0,0,1,0,.955l-1.127.5L85.37,6.64a16.391,16.391,0,0,0-8.438-2.925h-.059A16.391,16.391,0,0,0,68.435,6.64l-.423.313v.526l8.89,3.975,8.89-3.975,2.907-1.3a.523.523,0,0,0,0-.955Zm0,0" transform="translate(-64.796 0.001)" fill="#ffaf25"/>
          <path id="Path_117" data-name="Path 117" d="M98.205,110.907c2.182-1.121,5.818-1.475,7.124-1.569a.523.523,0,0,0,.485-.522V103.4a15.427,15.427,0,0,0-7.844-2.719,15.427,15.427,0,0,0-7.845,2.719v5.418a.523.523,0,0,0,.485.522c1.306.094,4.942.448,7.124,1.569a.516.516,0,0,0,.471,0Zm0,0" transform="translate(-85.863 -95.918)" fill="url(#linear-gradient-6)"/>
          <path id="Path_118" data-name="Path 118" d="M104.245,142.358a1.045,1.045,0,0,1-.906,1.036,17.978,17.978,0,0,0-4.919,1.257,1.051,1.051,0,0,1-.9,0c-2.732-1.29-7.4-1.493-7.4-1.493v.606a.523.523,0,0,0,.485.522c1.306.094,4.942.447,7.124,1.569a.516.516,0,0,0,.471,0c2.182-1.121,5.818-1.475,7.124-1.569a.523.523,0,0,0,.485-.522v-5.418a12.255,12.255,0,0,0-1.569-.985v5Zm0,0" transform="translate(-85.862 -130.866)" fill="#ffaf25"/>
          <path id="Path_119" data-name="Path 119" d="M345.809,254.37l-.832-2.189-.832,2.189a.314.314,0,0,0,.293.425h1.077a.314.314,0,0,0,.293-.425Zm0,0" transform="translate(-327.85 -240.254)" fill="#ffd664"/>
          <path id="Path_120" data-name="Path 120" d="M341.134,216.786a1.1,1.1,0,1,1-1.1-1.1A1.1,1.1,0,0,1,341.134,216.786Zm0,0" transform="translate(-322.908 -205.487)" fill="#ffd664"/>
          <path id="Path_121" data-name="Path 121" d="M342.456,217.754A1.1,1.1,0,0,1,341,219.206a1.1,1.1,0,1,0,1.452-1.452Zm0,0" transform="translate(-324.877 -207.456)" fill="#f9c646"/>
          <path id="Path_122" data-name="Path 122" d="M354.648,43.064V51.1a.392.392,0,1,1-.785,0V42.714Zm0,0" transform="translate(-337.128 -40.694)" fill="#ffd664"/>
        </g>
      </g>
      <rect id="Rectangle_212" data-name="Rectangle 212" width="8" height="3" transform="translate(-20294.02 -20865.203)" fill="url(#linear-gradient-7)"/>
      <path id="Rectangle_213" data-name="Rectangle 213" d="M1,0H1A0,0,0,0,1,1,0V3A0,0,0,0,1,1,3H1A1,1,0,0,1,0,2V1A1,1,0,0,1,1,0Z" transform="translate(-20296.02 -20865.203)" fill="url(#linear-gradient-8)"/>
      <path id="Polygon_2" data-name="Polygon 2" d="M1.5,0,3,2H0Z" transform="translate(-20283.02 -20865.203) rotate(90)" fill="url(#linear-gradient-9)"/>
    </g>
  </g>
</svg>
