<svg xmlns="http://www.w3.org/2000/svg" width="24" height="24.012" viewBox="0 0 24 24.012">
  <g id="Solid" transform="translate(-24 -24)">
    <path id="Контур_387" data-name="Контур 387" d="M138.68,146.538,134,141.854a1.242,1.242,0,1,0-1.756,1.756l2.564,2.564H121.242a1.242,1.242,0,1,0,0,2.484H134.8l-2.564,2.564A1.242,1.242,0,0,0,134,152.978l4.684-4.684A1.242,1.242,0,0,0,138.68,146.538Z" transform="translate(-91.044 -111.41)" fill="#193158"/>
    <path id="Контур_388" data-name="Контур 388" d="M38.49,43.044a1.242,1.242,0,0,0-1.242,1.242v1.242H26.484V26.484H37.248v1.242a1.242,1.242,0,0,0,2.484,0V26.07A2.07,2.07,0,0,0,37.662,24H26.07A2.07,2.07,0,0,0,24,26.07V45.942a2.07,2.07,0,0,0,2.07,2.07H37.662a2.07,2.07,0,0,0,2.07-2.07V44.286A1.242,1.242,0,0,0,38.49,43.044Z" fill="#193158"/>
  </g>
</svg>
