<svg xmlns="http://www.w3.org/2000/svg" width="24" height="21.058" viewBox="0 0 24 21.058">
  <g id="Group_1925" data-name="Group 1925" transform="translate(-0.032)">
    <rect id="Rectangle_521" data-name="Rectangle 521" width="20.572" height="21.058" transform="translate(0.048)" fill="rgba(248,248,248,0)"/>
    <g id="Subtraction_2" data-name="Subtraction 2" transform="translate(13.866 9.185)">
      <path id="Path_716" data-name="Path 716" d="M24.135,15.234a4.583,4.583,0,0,0-1.223-.567A2.466,2.466,0,0,1,21.3,15.72h.175a3.729,3.729,0,0,1,1.843.486A3.8,3.8,0,0,1,25.256,19.5,1.263,1.263,0,0,1,24,20.757H18.8a4.993,4.993,0,0,0,.161-1.26,8.862,8.862,0,0,0-.675-3.383c-.045-.108-.088-.206-.135-.305a3.488,3.488,0,0,1,.81-.088H20.4a2.461,2.461,0,0,1-1.726-1.252,4.971,4.971,0,0,0-1.358.27,4.894,4.894,0,0,0-.965.449A7.553,7.553,0,0,1,17.7,19.5a3.816,3.816,0,0,1-.957,2.52H24a2.518,2.518,0,0,0,2.523-2.52,4.982,4.982,0,0,0-2.384-4.263Z" transform="translate(-16.352 -14.469)" fill="#707070"/>
    </g>
    <g id="Group_923" data-name="Group 923" transform="translate(0.032 0.36)">
      <g id="Rectangle_337" data-name="Rectangle 337" transform="translate(0 7.222)">
        <g id="Path_718" data-name="Path 718">
          <path id="Path_2064" data-name="Path 2064" d="M11.485,13.291a7.435,7.435,0,0,0-1.141-.648,3.785,3.785,0,0,1-1.117,1.014,5.582,5.582,0,0,1,1.341.648,5.93,5.93,0,0,1,2.69,4.966A2.166,2.166,0,0,1,11.1,21.431H3.541a2.166,2.166,0,0,1-2.159-2.158,5.93,5.93,0,0,1,2.689-4.966,5.582,5.582,0,0,1,1.341-.65A3.785,3.785,0,0,1,4.3,12.641a7.485,7.485,0,0,0-1.141.648A7.289,7.289,0,0,0,.032,19.273a3.51,3.51,0,0,0,3.51,3.51H11.1a3.51,3.51,0,0,0,3.51-3.51,7.287,7.287,0,0,0-3.125-5.983Z" transform="translate(-0.032 -12.641)" fill="#707070"/>
        </g>
      </g>
      <g id="Path_1788" data-name="Path 1788" transform="translate(2.25)">
        <g id="Path_720" data-name="Path 720">
          <path id="Path_2065" data-name="Path 2065" d="M7.634,4.41a5.039,5.039,0,0,0-4.166,7.872A5.213,5.213,0,0,0,4.386,13.3a5.037,5.037,0,0,0,6.493,0,5.208,5.208,0,0,0,.917-1.017A5.038,5.038,0,0,0,7.634,4.41Zm1.907,8.239a3.713,3.713,0,1,1,1.115-1.017,3.751,3.751,0,0,1-1.115,1.017Z" transform="translate(-2.596 -4.41)" fill="#707070"/>
        </g>
      </g>
    </g>
    <g id="Group_1177" data-name="Group 1177" transform="translate(14.542 4.183)">
      <g id="Ellipse_125" data-name="Ellipse 125">
        <path id="Path_2066" data-name="Path 2066" d="M20.946,8.768a3.824,3.824,0,1,0,2.474,6.738,3.655,3.655,0,0,0,.81-.971,3.751,3.751,0,0,0,.54-1.943,3.832,3.832,0,0,0-3.824-3.824Zm.449,6.252a2.239,2.239,0,0,1-.9,0,2.474,2.474,0,1,1,.9,0Z" transform="translate(-17.122 -8.768)" fill="#707070"/>
      </g>
    </g>
  </g>
</svg>
