<svg xmlns="http://www.w3.org/2000/svg" width="24" height="24" viewBox="0 0 24 24">
  <g id="ftr-icon-yt" transform="translate(-449 -181.681)">
    <rect id="Rectangle_377" data-name="Rectangle 377" width="24" height="24" transform="translate(449 181.681)" fill="#fff" opacity="0"/>
    <path id="Icon_awesome-youtube" data-name="Icon awesome-youtube" d="M23.87,7.116A2.959,2.959,0,0,0,21.81,5c-1.818-.5-9.106-.5-9.106-.5S5.415,4.5,3.6,5A2.959,2.959,0,0,0,1.537,7.116a31.968,31.968,0,0,0-.487,5.761,31.968,31.968,0,0,0,.487,5.761A2.914,2.914,0,0,0,3.6,20.721c1.818.5,9.106.5,9.106.5s7.288,0,9.106-.5a2.914,2.914,0,0,0,2.061-2.082,31.968,31.968,0,0,0,.487-5.761,31.968,31.968,0,0,0-.487-5.761Zm-13.55,9.3V9.341l6.092,3.536L10.32,16.413Z" transform="translate(448.557 181.18)" fill="#fecf49"/>
  </g>
</svg>
