<svg xmlns="http://www.w3.org/2000/svg" width="24.001" height="24" viewBox="0 0 24.001 24">
  <g id="ftr-icon-vk" transform="translate(-394.999 -181.681)">
    <rect id="Rectangle_376" data-name="Rectangle 376" width="24" height="24" transform="translate(395 181.681)" fill="#fff" opacity="0"/>
    <path id="Icon_awesome-vk" data-name="Icon awesome-vk" d="M24.761,7.7c.165-.545,0-.946-.793-.946H21.344a1.126,1.126,0,0,0-1.141.728,21.421,21.421,0,0,1-3.226,5.256c-.61.6-.891.789-1.225.789-.165,0-.419-.192-.419-.737V7.7c0-.654-.187-.946-.74-.946H10.468a.628.628,0,0,0-.668.589c0,.619.945.763,1.043,2.508v3.786c0,.829-.151.981-.486.981-.891,0-3.056-3.2-4.34-6.865-.258-.711-.512-1-1.185-1H2.208c-.749,0-.9.345-.9.728,0,.68.891,4.061,4.148,8.527,2.17,3.049,5.226,4.7,8.006,4.7,1.671,0,1.876-.366,1.876-1,0-2.914-.151-3.188.686-3.188.388,0,1.056.192,2.615,1.662,1.782,1.745,2.076,2.525,3.074,2.525h2.624c.749,0,1.127-.366.909-1.09-.5-1.522-3.872-4.654-4.023-4.863-.388-.488-.276-.707,0-1.143,0,0,3.208-4.418,3.538-5.914Z" transform="translate(393.691 179.929)" fill="#fecf49"/>
  </g>
</svg>
