<svg xmlns="http://www.w3.org/2000/svg" width="24.001" height="24" viewBox="0 0 24.001 24">
  <g id="ftr-icon-tw" transform="translate(-282.999 -181.681)">
    <rect id="Rectangle_374" data-name="Rectangle 374" width="24" height="24" transform="translate(283 181.681)" fill="#fff" opacity="0"/>
    <path id="Icon_ionic-logo-twitter" data-name="Icon ionic-logo-twitter" d="M25.413,6.781a10.066,10.066,0,0,1-2.828.767,4.884,4.884,0,0,0,2.167-2.688,9.869,9.869,0,0,1-3.128,1.178,4.951,4.951,0,0,0-3.6-1.539,4.89,4.89,0,0,0-4.923,4.859,4.689,4.689,0,0,0,.127,1.108A14.021,14.021,0,0,1,3.081,5.387a4.819,4.819,0,0,0,1.531,6.488,4.862,4.862,0,0,1-2.238-.607v.06a4.877,4.877,0,0,0,3.952,4.763,5.023,5.023,0,0,1-1.3.17,4.709,4.709,0,0,1-.926-.09,4.923,4.923,0,0,0,4.6,3.374,9.962,9.962,0,0,1-6.118,2.081,10.122,10.122,0,0,1-1.175-.07,13.906,13.906,0,0,0,7.537,2.2A13.822,13.822,0,0,0,22.972,9.925c0-.211-.005-.421-.015-.627A9.946,9.946,0,0,0,25.413,6.781Z" transform="translate(281.586 179.179)" fill="#fecf49"/>
  </g>
</svg>
