<svg xmlns="http://www.w3.org/2000/svg" xmlns:xlink="http://www.w3.org/1999/xlink" width="40.298" height="41" viewBox="0 0 40.298 41">
  <defs>
    <linearGradient id="linear-gradient" x2="1.01" y2="1" gradientUnits="objectBoundingBox">
      <stop offset="0" stop-color="#fec606"/>
      <stop offset="1" stop-color="#ff4a51"/>
    </linearGradient>
  </defs>
  <g id="graduation" transform="translate(0 0)">
    <path id="Контур_2241" data-name="Контур 2241" d="M47.871,335.935a3.935,3.935,0,1,0-3.935,3.935A3.94,3.94,0,0,0,47.871,335.935ZM43.935,338.3a2.361,2.361,0,1,1,2.361-2.361A2.364,2.364,0,0,1,43.935,338.3Z" transform="translate(-36.852 -305.869)" fill="url(#linear-gradient)"/>
    <path id="Контур_2242" data-name="Контур 2242" d="M213.871,335.935a3.935,3.935,0,1,0-3.935,3.935A3.94,3.94,0,0,0,213.871,335.935Zm-3.935,2.361a2.361,2.361,0,1,1,2.361-2.361A2.364,2.364,0,0,1,209.935,338.3Z" transform="translate(-189.786 -305.869)" fill="url(#linear-gradient)"/>
    <path id="Контур_2243" data-name="Контур 2243" d="M379.871,335.935a3.935,3.935,0,1,0-3.935,3.935A3.94,3.94,0,0,0,379.871,335.935Zm-3.935,2.361a2.361,2.361,0,1,1,2.361-2.361A2.364,2.364,0,0,1,375.935,338.3Z" transform="translate(-342.721 -305.869)" fill="url(#linear-gradient)"/>
    <path id="Контур_2244" data-name="Контур 2244" d="M34.789,432H31.64a5.511,5.511,0,0,0-4.722,2.675A5.512,5.512,0,0,0,22.2,432H18.1a5.511,5.511,0,0,0-4.722,2.675A5.512,5.512,0,0,0,8.658,432H5.51A5.516,5.516,0,0,0,0,437.51a.787.787,0,0,0,.787.787h15.82a.787.787,0,1,0,0-1.574H14.246a3.942,3.942,0,0,1,3.856-3.148H22.2a3.942,3.942,0,0,1,3.856,3.148H23.691a.787.787,0,1,0,0,1.574h15.82a.787.787,0,0,0,.787-.787A5.516,5.516,0,0,0,34.789,432ZM1.653,436.722a3.942,3.942,0,0,1,3.856-3.148H8.658a3.942,3.942,0,0,1,3.856,3.148Zm26.131,0a3.942,3.942,0,0,1,3.856-3.148h3.148a3.942,3.942,0,0,1,3.856,3.148Z" transform="translate(0 -397.998)" fill="url(#linear-gradient)"/>
    <path id="Контур_2245" data-name="Контур 2245" d="M92.761,18.1v3.148a.787.787,0,0,0,.787.787H96.7a.787.787,0,0,0,.787-.787V18.1a2.365,2.365,0,0,0-1.574-2.226V7.084a.8.8,0,0,0-.478-.724l0,0L81.274.068a.787.787,0,0,0-.639,0l-14.167,6.3a.787.787,0,0,0,0,1.438L72.3,10.394V15.05a.787.787,0,0,0,.467.719l7.871,3.5a.788.788,0,0,0,.639,0l7.871-3.5a.787.787,0,0,0,.467-.719V10.394l4.722-2.1v7.582A2.365,2.365,0,0,0,92.761,18.1Zm3.148,2.361H94.335V18.1a.787.787,0,1,1,1.574,0ZM80.954,1.649,91.413,6.3H80.954a.787.787,0,1,0,0,1.574H91.413L80.954,12.519,68.725,7.084Zm7.084,12.89-7.084,3.148-7.084-3.148V11.094L80.635,14.1a.788.788,0,0,0,.639,0l6.764-3.006Z" transform="translate(-60.805)" fill="url(#linear-gradient)"/>
    <ellipse id="Эллипс_393" data-name="Эллипс 393" cx="1.5" cy="1" rx="1.5" ry="1" transform="translate(18.1 39.001)" fill="url(#linear-gradient)"/>
  </g>
</svg>
