<svg xmlns="http://www.w3.org/2000/svg" xmlns:xlink="http://www.w3.org/1999/xlink" width="69.056" height="59.427" viewBox="0 0 69.056 59.427">
  <defs>
    <linearGradient id="linear-gradient" x2="1.01" y2="1" gradientUnits="objectBoundingBox">
      <stop offset="0" stop-color="#ffc500"/>
      <stop offset="1" stop-color="#ff4a51"/>
    </linearGradient>
  </defs>
  <g id="Group_1925" data-name="Group 1925" transform="translate(-0.032)">
    <rect id="Rectangle_521" data-name="Rectangle 521" width="59.383" height="59.427" transform="translate(0.076)" fill="rgba(248,248,248,0)"/>
    <g id="Subtraction_2" data-name="Subtraction 2" transform="translate(40.398 25.922)">
      <path id="Path_716" data-name="Path 716" d="M38.315,16.628a12.935,12.935,0,0,0-3.452-1.6A6.958,6.958,0,0,1,30.317,18h.5a10.524,10.524,0,0,1,5.2,1.372A10.717,10.717,0,0,1,41.48,28.66a3.566,3.566,0,0,1-3.556,3.556H23.26a14.092,14.092,0,0,0,.456-3.556,25.009,25.009,0,0,0-1.9-9.548c-.126-.3-.248-.582-.381-.862A9.845,9.845,0,0,1,23.716,18h4.063a6.946,6.946,0,0,1-4.871-3.533,14.03,14.03,0,0,0-3.833.763A13.812,13.812,0,0,0,16.352,16.5a21.315,21.315,0,0,1,3.811,12.16,10.769,10.769,0,0,1-2.7,7.111H37.924a7.107,7.107,0,0,0,7.119-7.111,14.06,14.06,0,0,0-6.728-12.032Z" transform="translate(-16.352 -14.469)" fill="url(#linear-gradient)"/>
    </g>
    <g id="Group_923" data-name="Group 923" transform="translate(0.032 1.016)">
      <g id="Rectangle_337" data-name="Rectangle 337" transform="translate(0 20.381)">
        <g id="Path_718" data-name="Path 718">
          <path id="Path_2064" data-name="Path 2064" d="M32.353,14.476a20.983,20.983,0,0,0-3.219-1.827,10.682,10.682,0,0,1-3.152,2.862,15.753,15.753,0,0,1,3.784,1.827,16.736,16.736,0,0,1,7.592,14.015,6.114,6.114,0,0,1-6.094,6.094H9.934A6.114,6.114,0,0,1,3.84,31.358a16.735,16.735,0,0,1,7.59-14.014,15.753,15.753,0,0,1,3.785-1.834,10.682,10.682,0,0,1-3.147-2.87A21.124,21.124,0,0,0,8.85,14.468,20.569,20.569,0,0,0,.032,31.358a9.9,9.9,0,0,0,9.9,9.9H31.266a9.9,9.9,0,0,0,9.9-9.9,20.566,20.566,0,0,0-8.82-16.884Z" transform="translate(-0.032 -12.641)" fill="url(#linear-gradient)"/>
        </g>
      </g>
      <g id="Path_1788" data-name="Path 1788" transform="translate(6.35)">
        <g id="Path_720" data-name="Path 720">
          <path id="Path_2065" data-name="Path 2065" d="M16.813,4.41A14.22,14.22,0,0,0,5.057,26.626a14.711,14.711,0,0,0,2.59,2.87,14.216,14.216,0,0,0,18.323,0,14.7,14.7,0,0,0,2.588-2.87A14.218,14.218,0,0,0,16.813,4.41ZM22.2,27.661a10.479,10.479,0,1,1,3.147-2.87,10.585,10.585,0,0,1-3.147,2.87Z" transform="translate(-2.596 -4.41)" fill="url(#linear-gradient)"/>
        </g>
      </g>
    </g>
    <g id="Group_1177" data-name="Group 1177" transform="translate(42.305 11.805)">
      <g id="Ellipse_125" data-name="Ellipse 125">
        <path id="Path_2066" data-name="Path 2066" d="M27.913,8.768A10.791,10.791,0,1,0,34.9,27.785a10.315,10.315,0,0,0,2.285-2.741A10.585,10.585,0,0,0,38.7,19.559,10.813,10.813,0,0,0,27.913,8.768Zm1.268,17.645a6.319,6.319,0,0,1-2.538,0,6.983,6.983,0,1,1,2.541,0Z" transform="translate(-17.122 -8.768)" fill="url(#linear-gradient)"/>
      </g>
    </g>
  </g>
</svg>
