<svg xmlns="http://www.w3.org/2000/svg" width="30.762" height="29.321" viewBox="0 0 30.762 29.321">
  <g id="system-controller" transform="translate(0.25 -5.321)">
    <path id="Контур_2207" data-name="Контур 2207" d="M.97,10.356H6.044a3.815,3.815,0,0,0,7.379,0H29.292a.97.97,0,1,0,0-1.94H13.423a3.815,3.815,0,0,0-7.379,0H.97a.97.97,0,1,0,0,1.94ZM9.734,7.511A1.875,1.875,0,1,1,7.859,9.386,1.877,1.877,0,0,1,9.734,7.511Z" fill="#193158" stroke="#193158" stroke-width="0.5"/>
    <path id="Контур_2208" data-name="Контур 2208" d="M29.292,90.345H22.827a3.815,3.815,0,0,0-7.379,0H.97a.97.97,0,1,0,0,1.94H15.448a3.815,3.815,0,0,0,7.379,0h6.465a.97.97,0,1,0,0-1.94ZM19.137,93.19a1.875,1.875,0,1,1,1.875-1.875A1.877,1.877,0,0,1,19.137,93.19Z" transform="translate(0 -71.334)" fill="#193158" stroke="#193158" stroke-width="0.5"/>
    <path id="Контур_2209" data-name="Контур 2209" d="M29.292,172.274H13.423a3.815,3.815,0,0,0-7.379,0H.97a.97.97,0,1,0,0,1.94H6.044a3.815,3.815,0,0,0,7.379,0H29.292a.97.97,0,1,0,0-1.94ZM9.734,175.119a1.875,1.875,0,1,1,1.875-1.875A1.877,1.877,0,0,1,9.734,175.119Z" transform="translate(0 -142.667)" fill="#193158" stroke="#193158" stroke-width="0.5"/>
  </g>
</svg>
