<svg xmlns="http://www.w3.org/2000/svg" width="24.3" height="24.3" viewBox="0 0 24.3 24.3">
  <g id="translation" transform="translate(0.15 0.15)">
    <path id="Контур_2233" data-name="Контур 2233" d="M22.031,8.437H15.438c.021-.231.032-.465.032-.7a7.737,7.737,0,0,0-11.6-6.7.469.469,0,1,0,.469.812,6.8,6.8,0,1,1,3.4,12.688,6.722,6.722,0,0,1-4.263-1.5.469.469,0,0,0-.432-.083L1.8,13.272,2.284,12.2a.469.469,0,0,0-.048-.47,6.8,6.8,0,0,1-.386-7.4.469.469,0,1,0-.811-.47,7.741,7.741,0,0,0,.281,8.2L.535,13.781a.469.469,0,0,0,.545.648l1.993-.521a7.733,7.733,0,0,0,5.739,1.487v4.1a1.971,1.971,0,0,0,1.969,1.969h6.63l2.964,2.425a.469.469,0,0,0,.766-.363V21.468h.891A1.971,1.971,0,0,0,24,19.5V10.406a1.971,1.971,0,0,0-1.969-1.969ZM23.062,19.5a1.032,1.032,0,0,1-1.031,1.031H20.672A.469.469,0,0,0,20.2,21v1.542l-2.315-1.894c-.128-.116-.239-.116-.49-.116H10.781A1.032,1.032,0,0,1,9.75,19.5V15.2A7.761,7.761,0,0,0,15.3,9.375h6.736a1.032,1.032,0,0,1,1.031,1.031Zm0,0" fill="#fff" stroke="#fff" stroke-miterlimit="10" stroke-width="0.3"/>
    <path id="Контур_2234" data-name="Контур 2234" d="M292.667,254.712a.47.47,0,0,0-.2-.895h-.192l-1.516-3.454a.47.47,0,0,0-.861,0l-1.516,3.454h-.192a.47.47,0,0,0-.2.895L287.425,256a.47.47,0,1,0,.861.378l.71-1.619h2.664l.71,1.619a.47.47,0,1,0,.861-.378Zm-3.258-.895.92-2.1.919,2.1Zm0,0" transform="translate(-273.926 -238.371)" fill="#fff" stroke="#fff" stroke-miterlimit="10" stroke-width="0.3"/>
    <path id="Контур_2235" data-name="Контур 2235" d="M45.872,46.338a.47.47,0,1,0-.332-.138A.474.474,0,0,0,45.872,46.338Zm0,0" transform="translate(-43.269 -43.265)" fill="#fff" stroke="#fff" stroke-miterlimit="10" stroke-width="0.3"/>
    <path id="Контур_2236" data-name="Контур 2236" d="M100.377,92a.47.47,0,1,0,.452.824,5.382,5.382,0,0,0,2.326-2.523,5.383,5.383,0,0,0,2.326,2.523.47.47,0,1,0,.452-.824,4.445,4.445,0,0,1-2.258-3.234h2.086a.47.47,0,0,0,0-.94h-2.137V85.865a.47.47,0,0,0-.94,0v1.958h-1.7a.47.47,0,0,0,0,.94h1.647A4.444,4.444,0,0,1,100.377,92Zm0,0" transform="translate(-95.443 -81.397)" fill="#fff" stroke="#fff" stroke-miterlimit="10" stroke-width="0.3"/>
  </g>
</svg>
