<svg xmlns="http://www.w3.org/2000/svg" width="18.633" height="24" viewBox="0 0 18.633 24">
  <g id="pin" transform="translate(-79.968 0.001)">
    <path id="Контур_284" data-name="Контур 284" d="M89.284,24a1.666,1.666,0,0,1-1.417-.727l-.009-.014-6.72-10.893a7.533,7.533,0,0,1,.123-8.256A9.442,9.442,0,0,1,89.076,0c.139,0,.278,0,.417,0a9.442,9.442,0,0,1,7.814,4.108,7.533,7.533,0,0,1,.123,8.256L90.71,23.258l-.009.014A1.665,1.665,0,0,1,89.284,24Zm0-22.5-.174,0a7.715,7.715,0,0,0-6.383,3.36,6.191,6.191,0,0,0-.1,6.784l6.659,10.8,6.659-10.8a6.191,6.191,0,0,0-.1-6.785A7.715,7.715,0,0,0,89.458,1.5l-.174,0Z" transform="translate(0 0)" fill="#707070"/>
    <path id="Контур_285" data-name="Контур 285" d="M187.048,94.25a3.126,3.126,0,1,1,3.048-3.125A3.091,3.091,0,0,1,187.048,94.25Zm0-4.862a1.737,1.737,0,1,0,1.693,1.736A1.717,1.717,0,0,0,187.048,89.389Z" transform="translate(-97.702 -81.875)" fill="#707070"/>
  </g>
</svg>
