<svg xmlns="http://www.w3.org/2000/svg" width="34.534" height="24.316" viewBox="0 0 34.534 24.316">
  <g id="mortarboard" transform="translate(0.15 -76.361)">
    <path id="Контур_2254" data-name="Контур 2254" d="M33.573,81.906l-7.226-2.442a.5.5,0,0,0-.321.95l7.157,2.419-3.369,1.643a1.522,1.522,0,0,0-.467-.211L19.24,81.623a2.162,2.162,0,0,0-4.286.4v.011a1.285,1.285,0,0,0,1.29,1.268h1.745a1.277,1.277,0,0,0,1.135-.678l9.424,2.463L18.033,90.219a2.082,2.082,0,0,1-1.834,0L1.051,82.833l15.4-5.2a2.1,2.1,0,0,1,1.34,0L23.8,79.661a.5.5,0,0,0,.321-.95l-6.011-2.032a3.113,3.113,0,0,0-1.982,0L.661,81.906a.974.974,0,0,0-.115,1.8l7.937,3.869a47.44,47.44,0,0,1-1.828,6.294,1.983,1.983,0,0,0,.636,2.246,25.2,25.2,0,0,0,7.771,4.085,6.74,6.74,0,0,0,4.111,0,25.209,25.209,0,0,0,7.77-4.085,1.983,1.983,0,0,0,.636-2.246,47.462,47.462,0,0,1-1.828-6.294l3.733-1.82V93.3a1.239,1.239,0,0,0-1.143,1.233v1.461a.74.74,0,0,0,.243.548L28.4,99.358a.956.956,0,0,0,.953,1.018H30.62a.956.956,0,0,0,.953-1.018l-.186-2.816a.74.74,0,0,0,.243-.548V94.532A1.239,1.239,0,0,0,30.487,93.3V85.741a1.52,1.52,0,0,0-.068-.445L33.687,83.7a.974.974,0,0,0-.115-1.8Zm-15.583.4H16.244a.283.283,0,0,1-.287-.268v-.008a1.149,1.149,0,0,1,.365-.845,1.161,1.161,0,0,1,1.953.787A.285.285,0,0,1,17.989,82.3Zm8.082,10.273a23.694,23.694,0,0,1-7.879,3.89.5.5,0,1,0,.188.985,24.7,24.7,0,0,0,8.031-3.872c.07.2.151.427.225.63a.982.982,0,0,1-.314,1.113,24.283,24.283,0,0,1-7.458,3.919,5.738,5.738,0,0,1-3.5,0A24.284,24.284,0,0,1,7.91,95.323.982.982,0,0,1,7.6,94.21l.009-.024c.073-.2.154-.426.216-.606a24.736,24.736,0,0,0,8.03,3.872.5.5,0,0,0,.188-.985,23.7,23.7,0,0,1-7.879-3.89,47.129,47.129,0,0,0,1.25-4.552l6.349,3.1a3.076,3.076,0,0,0,2.713,0l6.348-3.1a47.111,47.111,0,0,0,1.25,4.552Zm3.331,6.8.174-2.637h.817l.174,2.637Zm1.224-4.841v1.2H29.344v-1.2a.238.238,0,0,1,.235-.235h.813A.238.238,0,0,1,30.626,94.532Z" transform="translate(0 0)" fill="#fff" stroke="#fff" stroke-width="0.3"/>
  </g>
</svg>
