<svg xmlns="http://www.w3.org/2000/svg" width="22" height="22" viewBox="0 0 22 22">
  <g id="phone_1_" data-name="phone (1)" transform="translate(-0.539 0)">
    <g id="Сгруппировать_230" data-name="Сгруппировать 230" transform="translate(0.539 0)">
      <path id="Контур_206" data-name="Контур 206" d="M21.962,16.146l-3.077-3.07a2.048,2.048,0,0,0-3.406.768,2.1,2.1,0,0,1-2.417,1.316c-2.2-.548-5.164-3.4-5.714-5.7A1.987,1.987,0,0,1,8.667,7.045a2.04,2.04,0,0,0,.769-3.4L6.359.576a2.2,2.2,0,0,0-2.967,0L1.3,2.659c-2.088,2.193.22,8,5.384,13.158s10.988,7.566,13.186,5.373l2.088-2.083A2.186,2.186,0,0,0,21.962,16.146Z" transform="translate(-0.539 0)" fill="#fecf49"/>
    </g>
  </g>
</svg>
