<svg id="user_4_" data-name="user (4)" xmlns="http://www.w3.org/2000/svg" width="18" height="22" viewBox="0 0 18 22">
  <path id="Path_102" data-name="Path 102" d="M92.078,10.8a4.726,4.726,0,0,0,3.568-1.583A5.419,5.419,0,0,0,97.123,5.4a5.42,5.42,0,0,0-1.478-3.82,4.813,4.813,0,0,0-7.135,0A5.419,5.419,0,0,0,87.032,5.4a5.419,5.419,0,0,0,1.478,3.82A4.727,4.727,0,0,0,92.078,10.8Zm0,0" transform="translate(-83.219 0)" fill="#fecf49"/>
  <path id="Path_103" data-name="Path 103" d="M17.956,253.729a13.845,13.845,0,0,0-.175-1.417,11.534,11.534,0,0,0-.335-1.425,7.183,7.183,0,0,0-.563-1.329,5,5,0,0,0-.85-1.151,3.73,3.73,0,0,0-1.221-.8,4.076,4.076,0,0,0-1.558-.293,1.549,1.549,0,0,0-.845.372c-.253.172-.549.37-.88.59a4.948,4.948,0,0,1-1.138.521,4.26,4.26,0,0,1-2.785,0,4.934,4.934,0,0,1-1.138-.521c-.327-.218-.624-.416-.881-.59a1.546,1.546,0,0,0-.844-.372,4.072,4.072,0,0,0-1.558.293,3.727,3.727,0,0,0-1.221.8,5,5,0,0,0-.849,1.151,7.2,7.2,0,0,0-.563,1.329,11.563,11.563,0,0,0-.335,1.425,13.8,13.8,0,0,0-.175,1.418c-.029.429-.043.875-.043,1.325a3.8,3.8,0,0,0,1.064,2.818,3.747,3.747,0,0,0,2.742,1.04H14.194a3.746,3.746,0,0,0,2.742-1.04A3.8,3.8,0,0,0,18,255.054c0-.452-.015-.9-.044-1.325Zm0,0" transform="translate(0 -236.912)" fill="#fecf49"/>
</svg>
