<svg xmlns="http://www.w3.org/2000/svg" xmlns:xlink="http://www.w3.org/1999/xlink" width="40.984" height="40.984" viewBox="0 0 40.984 40.984">
  <defs>
    <linearGradient id="linear-gradient" x2="1.01" y2="1" gradientUnits="objectBoundingBox">
      <stop offset="0" stop-color="#fec606"/>
      <stop offset="1" stop-color="#ff4a51"/>
    </linearGradient>
  </defs>
  <g id="presentation" transform="translate(322 -27)">
    <g id="Сгруппировать_10997" data-name="Сгруппировать 10997" transform="translate(-322 27)">
      <g id="Сгруппировать_10996" data-name="Сгруппировать 10996">
        <path id="Контур_2238" data-name="Контур 2238" d="M38.935,20.492h-.683V4.1h.683a2.049,2.049,0,0,0,0-4.1H2.049a2.049,2.049,0,1,0,0,4.1h.683V20.492H2.049a2.049,2.049,0,0,0,0,4.1H38.935a2.049,2.049,0,0,0,0-4.1ZM2.049,2.732a.683.683,0,0,1,0-1.366H38.935a.683.683,0,0,1,0,1.366ZM36.886,4.1V20.492H4.1V4.1Zm2.049,19.126H2.049a.683.683,0,0,1,0-1.366H38.935a.683.683,0,0,1,0,1.366Z" fill="url(#linear-gradient)"/>
        <path id="Контур_2239" data-name="Контур 2239" d="M137.214,78.462a.683.683,0,0,0,.683-.683V74.435l2.049.871v4.076l0,.007a.683.683,0,0,0,.051.253q.07.11.145.218a.682.682,0,0,0,.221.151l3.4,1.442a6.012,6.012,0,0,0,4.669,0l3.393-1.441a.683.683,0,0,0,.221-.151q.074-.108.145-.218a.682.682,0,0,0,.051-.253V75.306l2.705-1.15a1.227,1.227,0,0,0,0-2.226l-8.429-3.582a1.076,1.076,0,0,0-.848,0l-8.429,3.582a1.2,1.2,0,0,0-.71,1.113v4.736A.683.683,0,0,0,137.214,78.462Zm13.661.468L147.9,80.193a4.653,4.653,0,0,1-3.609,0l-2.979-1.265V75.887l4.358,1.852a1.076,1.076,0,0,0,.848,0l4.357-1.852V78.93Zm-4.781-9.278,7.979,3.391-2.777,1.18-.006,0-5.2,2.208-5.2-2.208-.006,0-2.777-1.18Z" transform="translate(-125.602 -62.797)" fill="url(#linear-gradient)"/>
        <path id="Контур_2240" data-name="Контур 2240" d="M39.618,334.946H38.252v-.878a4.569,4.569,0,0,0-2.564-4.06,3.415,3.415,0,1,0-4.435,0,4.57,4.57,0,0,0-2.564,4.06v.878H25.273v-.878a4.569,4.569,0,0,0-2.564-4.06,3.415,3.415,0,1,0-4.435,0,4.57,4.57,0,0,0-2.564,4.06v.878H12.3v-.878a4.569,4.569,0,0,0-2.564-4.06,3.415,3.415,0,1,0-4.435,0,4.57,4.57,0,0,0-2.564,4.06v.878H1.366A1.367,1.367,0,0,0,0,336.312v1.366a1.368,1.368,0,0,0,1.366,1.366H39.618a1.368,1.368,0,0,0,1.366-1.366v-1.366A1.368,1.368,0,0,0,39.618,334.946Zm-6.148-9.563a2.049,2.049,0,1,1-2.049,2.049A2.049,2.049,0,0,1,33.47,325.383Zm-3.415,8.685a3.421,3.421,0,0,1,6.831,0v.878H30.055v-.878Zm-9.563-8.685a2.049,2.049,0,1,1-2.049,2.049A2.049,2.049,0,0,1,20.492,325.383Zm-3.415,8.685a3.421,3.421,0,0,1,6.831,0v.878H17.077v-.878Zm-9.563-8.685a2.049,2.049,0,1,1-2.049,2.049A2.049,2.049,0,0,1,7.514,325.383ZM4.1,334.068a3.326,3.326,0,0,1,3.415-3.22,3.326,3.326,0,0,1,3.415,3.22v.878H4.1Zm-2.732,3.61v-1.366H39.618v1.366Z" transform="translate(0 -298.06)" fill="url(#linear-gradient)"/>
      </g>
    </g>
  </g>
</svg>
