<svg xmlns="http://www.w3.org/2000/svg" width="27.082" height="27.082" viewBox="0 0 27.082 27.082">
  <g id="settings_1_" data-name="settings (1)" transform="translate(0.35 0.35)">
    <g id="Сгруппировать_533" data-name="Сгруппировать 533">
      <g id="Сгруппировать_532" data-name="Сгруппировать 532">
        <path id="Контур_394" data-name="Контур 394" d="M25.792,10.946,22.706,10.2a10,10,0,0,0-.649-1.57L23.64,5.989a.773.773,0,0,0-.116-.944L21.338,2.859a.773.773,0,0,0-.944-.116L17.755,4.325a9.992,9.992,0,0,0-1.57-.649L15.437.591A.773.773,0,0,0,14.686,0H11.594a.773.773,0,0,0-.751.591l-.749,3.086a10,10,0,0,0-1.57.649L5.886,2.742a.773.773,0,0,0-.944.116L2.756,5.045a.773.773,0,0,0-.116.944L4.222,8.627a9.992,9.992,0,0,0-.65,1.573l-2.987.747A.773.773,0,0,0,0,11.7v3.092a.773.773,0,0,0,.585.75l2.987.747a10,10,0,0,0,.65,1.573L2.639,20.5a.773.773,0,0,0,.116.944l2.186,2.186a.773.773,0,0,0,.944.116L8.524,22.16a10,10,0,0,0,1.573.65l.747,2.987a.773.773,0,0,0,.75.585h3.092a.773.773,0,0,0,.75-.585l.747-2.987a10,10,0,0,0,1.573-.65l2.638,1.583a.773.773,0,0,0,.944-.116l2.186-2.186a.773.773,0,0,0,.116-.944l-1.583-2.638a10,10,0,0,0,.649-1.57l3.086-.749a.773.773,0,0,0,.591-.751V11.7A.773.773,0,0,0,25.792,10.946Zm-.955,3.235-2.929.711a.773.773,0,0,0-.564.551,8.445,8.445,0,0,1-.846,2.046.773.773,0,0,0,.006.785l1.5,2.5-1.333,1.333-2.5-1.5a.773.773,0,0,0-.785-.006,8.45,8.45,0,0,1-2.046.846.773.773,0,0,0-.55.559l-.708,2.831H12.2l-.708-2.831a.773.773,0,0,0-.55-.559A8.448,8.448,0,0,1,8.894,20.6a.773.773,0,0,0-.785.006l-2.5,1.5L4.275,20.775l1.5-2.5a.773.773,0,0,0,.006-.785,8.443,8.443,0,0,1-.846-2.046.773.773,0,0,0-.559-.55l-2.831-.708V12.3l2.831-.708a.773.773,0,0,0,.559-.55A8.447,8.447,0,0,1,5.782,9a.773.773,0,0,0-.006-.785l-1.5-2.5L5.608,4.378l2.5,1.5a.773.773,0,0,0,.785.006,8.446,8.446,0,0,1,2.046-.846.773.773,0,0,0,.551-.564L12.2,1.546h1.876l.711,2.929a.773.773,0,0,0,.551.564,8.446,8.446,0,0,1,2.046.846.773.773,0,0,0,.785-.006l2.5-1.5L22,5.711l-1.5,2.5A.773.773,0,0,0,20.5,9a8.445,8.445,0,0,1,.846,2.046.773.773,0,0,0,.564.551l2.929.711Z" fill="#193158" stroke="#193158" stroke-miterlimit="10" stroke-width="0.7"/>
      </g>
    </g>
    <g id="Сгруппировать_535" data-name="Сгруппировать 535" transform="translate(7.729 7.832)">
      <g id="Сгруппировать_534" data-name="Сгруппировать 534">
        <path id="Контур_395" data-name="Контур 395" d="M155.411,152a5.411,5.411,0,1,0,5.411,5.411A5.417,5.417,0,0,0,155.411,152Zm0,9.275a3.865,3.865,0,1,1,3.865-3.865A3.869,3.869,0,0,1,155.411,161.275Z" transform="translate(-150 -152)" fill="#193158" stroke="#193158" stroke-miterlimit="10" stroke-width="0.7"/>
      </g>
    </g>
  </g>
</svg>
