<svg id="paint_2_" data-name="paint (2)" xmlns="http://www.w3.org/2000/svg" xmlns:xlink="http://www.w3.org/1999/xlink" width="42.716" height="42.716" viewBox="0 0 42.716 42.716">
  <defs>
    <linearGradient id="linear-gradient" x2="1.01" y2="1" gradientUnits="objectBoundingBox">
      <stop offset="0" stop-color="#fec606"/>
      <stop offset="1" stop-color="#ff4a51"/>
    </linearGradient>
  </defs>
  <path id="Path_214" data-name="Path 214" d="M12.6,35.124a4.992,4.992,0,0,0-1.593-3.657V31.46c.089-1.225.161-2.517.215-3.85,2.562.483,4.378,1.454,5.406,2.9a6.046,6.046,0,0,1,.833,4.671,3.768,3.768,0,0,0,2.86,4.6,19.135,19.135,0,0,0,3.614.348A18.9,18.9,0,0,0,42.716,21.359c0-10.564-9.185-19.183-18.78-18.838a21.855,21.855,0,0,0-13.2,5.613Q10.672,7.553,10.6,7a30.144,30.144,0,0,0-.837-4.518C9.549,1.742,9.038,0,7.592,0S5.635,1.742,5.417,2.486A30.154,30.154,0,0,0,4.58,7a122.672,122.672,0,0,0-.743,14.355c0,3.53.118,7.024.341,10.1v.007a4.992,4.992,0,0,0-1.593,3.657V37.71A2.58,2.58,0,0,1,0,40.213v2.5H5.089A7.577,7.577,0,0,0,12.6,35.124Zm11.428-30.1c8.064-.289,16.19,7.072,16.187,16.336A16.37,16.37,0,0,1,20.792,37.32a1.278,1.278,0,0,1-.89-1.6,8.455,8.455,0,0,0-1.237-6.669c-1.47-2.064-3.944-3.4-7.363-3.973.029-1.226.044-3.818.044-3.865a3.754,3.754,0,1,0-.076-4.812c-.056-1.778-.141-3.483-.255-5.077,2.832-2.992,7.62-6.113,13.01-6.307ZM12.982,18.443a1.251,1.251,0,1,1,.885,1.533A1.251,1.251,0,0,1,12.982,18.443ZM6.941,8.38a40.067,40.067,0,0,1,.651-4.3,40.067,40.067,0,0,1,.651,4.3,127.407,127.407,0,0,1,.6,12.978q0,.627-.005,1.251H6.346q-.005-.624-.005-1.251a127.407,127.407,0,0,1,.6-12.978ZM6.386,25.112H8.8c-.043,1.767-.116,3.486-.217,5.105a5.01,5.01,0,0,0-1.977,0c-.1-1.619-.174-3.338-.217-5.105Zm-1.3,12.6V35.124a2.5,2.5,0,1,1,5.006,0,5.054,5.054,0,0,1-5.006,5.089H4.4A4.871,4.871,0,0,0,5.089,37.71Z" transform="translate(0 0)" fill="url(#linear-gradient)"/>
  <path id="Path_215" data-name="Path 215" d="M332.252,132.575a3.754,3.754,0,1,0-5.31,0A3.752,3.752,0,0,0,332.252,132.575Zm-3.54-3.54a1.251,1.251,0,1,1,0,1.77A1.253,1.253,0,0,1,328.712,129.036Z" transform="translate(-298.657 -115.642)" fill="url(#linear-gradient)"/>
  <path id="Path_216" data-name="Path 216" d="M214.663,102.466a3.754,3.754,0,1,0-4.6-2.655A3.759,3.759,0,0,0,214.663,102.466Zm-1.3-4.835a1.251,1.251,0,1,1-.885,1.533,1.253,1.253,0,0,1,.885-1.533Z" transform="translate(-192.422 -87.152)" fill="url(#linear-gradient)"/>
  <path id="Path_217" data-name="Path 217" d="M272.181,331.625a3.754,3.754,0,1,0,2.655-4.6A3.759,3.759,0,0,0,272.181,331.625Zm3.3-2.181a1.251,1.251,0,1,1-.885,1.533A1.251,1.251,0,0,1,275.484,329.444Z" transform="translate(-249.355 -299.625)" fill="url(#linear-gradient)"/>
  <path id="Path_218" data-name="Path 218" d="M357.034,244.828a3.754,3.754,0,1,0,4.6-2.655A3.759,3.759,0,0,0,357.034,244.828Zm4.835,1.3a1.251,1.251,0,1,1-.885-1.533A1.251,1.251,0,0,1,361.869,246.124Z" transform="translate(-327.129 -221.851)" fill="url(#linear-gradient)"/>
</svg>
