<svg xmlns="http://www.w3.org/2000/svg" xmlns:xlink="http://www.w3.org/1999/xlink" width="40.959" height="41.002" viewBox="0 0 40.959 41.002">
  <defs>
    <linearGradient id="linear-gradient" x2="1.01" y2="1" gradientUnits="objectBoundingBox">
      <stop offset="0" stop-color="#fec606"/>
      <stop offset="1" stop-color="#ff4a51"/>
    </linearGradient>
  </defs>
  <g id="Page-1" transform="translate(-0.012)">
    <g id="_035---Creative-Thinking" data-name="035---Creative-Thinking" transform="translate(0.012 0)">
      <path id="Shape" d="M35.38,30.068a9.183,9.183,0,0,0-.016-3.485l3.13-7.553a.111.111,0,0,0,0-.015,12.834,12.834,0,0,1,2.2-3.815,1.019,1.019,0,0,0,.252-.933L39.66,8.725a.668.668,0,0,0-.068-.165c-.005-.01-.008-.023-.013-.032s-.029-.033-.043-.051a.689.689,0,0,0-.1-.113.635.635,0,0,0-.074-.045.7.7,0,0,0-.106-.064.675.675,0,0,0-.16-.039c-.016,0-.029-.01-.045-.012a.683.683,0,0,0-.377.084c-.01.005-.023.008-.033.014h-.007l-4.825,3.012a1.02,1.02,0,0,0-.482.841,12.827,12.827,0,0,1-1.149,4.259v.008L30.617,20.2a9.167,9.167,0,0,0-2.441-.882,36.921,36.921,0,0,0,.354-6.72,7.458,7.458,0,0,0,1.7-5.475C29.8,3.143,26.2.267,26.046.146a.683.683,0,0,0-1.083.713c.352,1.322.047,2.716-2.552,5.584a4,4,0,0,0-.937,4.358,5.305,5.305,0,0,0,.973,1.572c-.165,1.056-.3,2.056-.385,3.029a34.223,34.223,0,0,0-.119,4.846,9.3,9.3,0,0,0-1.7,1.186L16.927,7.261c0-.014-.014-.025-.018-.038a.646.646,0,0,0-.048-.132L13.476.84a1.578,1.578,0,0,0-2.964.694l-.257,7.1a.706.706,0,0,0,.017.152v.031l3.381,14.431a7.7,7.7,0,0,0-1.58.236L8.353,14.5a1.381,1.381,0,0,0-1.784-.731L.885,16.127a1.371,1.371,0,0,0-.74,1.786L5.189,30.082A5.464,5.464,0,0,0,5.471,41H35.539a5.468,5.468,0,1,0-.159-10.934Zm-.7-17.688,2.865-1.788-1.014,2.449a.684.684,0,1,0,1.263.523l1.014-2.449.759,3.289a13.516,13.516,0,0,0-1.982,3.271,2.811,2.811,0,0,1-3.82-1.58A13.5,13.5,0,0,0,34.684,12.38Zm-1.572,5.365a4.163,4.163,0,0,0,1.7,1.24,4.337,4.337,0,0,0,1.672.353,3.615,3.615,0,0,0,.414-.025l-2.181,5.262a9.275,9.275,0,0,0-2.934-3.628ZM23.75,12.864l3.433.21c.021.638.014,1.3-.008,1.969a14.365,14.365,0,0,1-3.424-.165c-.086-.012-.17-.022-.256-.033.068-.644.152-1.3.252-1.98Zm-.326-5.5c1.814-2,2.755-3.541,2.973-4.989a9.14,9.14,0,0,1,2.466,4.9,6.123,6.123,0,0,1-1.383,4.45l-4.005-.246a2.85,2.85,0,0,1-.053-4.114Zm-.052,8.845.2.026a19.466,19.466,0,0,0,2.66.226c.283,0,.581-.023.879-.046-.062.879-.164,1.8-.293,2.747-.169-.009-.334-.025-.5-.025a9.153,9.153,0,0,0-3.029.521,32.976,32.976,0,0,1,.086-3.45ZM18.086,24.2l-1.955-8.328a.683.683,0,0,0-1.331.312l1.757,7.5a7.74,7.74,0,0,0-1.49-.371l-3-12.8a3.239,3.239,0,0,0,1.338.291c.043,0,.089-.006.133-.008l.483,2.063a.683.683,0,1,0,1.331-.312l-.484-2.064a3.236,3.236,0,0,0,1.194-.909l3.049,13.038A9.168,9.168,0,0,0,18.086,24.2ZM13.911,9.368a2.269,2.269,0,0,1-2.282-.914l.087-2.407a4.021,4.021,0,0,0,.721.068,3.045,3.045,0,0,0,.694-.077,3.481,3.481,0,0,0,1.267-.63l1.151,2.124A2.267,2.267,0,0,1,13.911,9.37ZM12.039,1.385a.213.213,0,0,1,.235.105L13.74,4.2a2.332,2.332,0,0,1-.923.513,2.323,2.323,0,0,1-1.053-.05l.111-3.079A.212.212,0,0,1,12.039,1.385ZM7.094,15.034,7.616,16.3,5.087,17.342a.683.683,0,0,0,.263,1.313.693.693,0,0,0,.262-.052l2.528-1.048.523,1.263L7.4,19.343a.683.683,0,0,0,.262,1.315.7.7,0,0,0,.261-.052l1.265-.524.523,1.263L7.179,22.394a.683.683,0,0,0,.262,1.315.692.692,0,0,0,.261-.052l2.528-1.047.553,1.335A7.933,7.933,0,0,0,6.359,29.33L1.406,17.387Zm28.445,24.6H5.471a4.1,4.1,0,1,1,0-8.2A4.025,4.025,0,0,1,6.64,31.6a.683.683,0,0,0,.881-.642A6.492,6.492,0,0,1,17.908,25.9a.683.683,0,0,0,1.048-.308,7.86,7.86,0,0,1,14.871,5.073.683.683,0,0,0,.8.869,4.266,4.266,0,0,1,.912-.1,4.1,4.1,0,0,1,0,8.2Z" transform="translate(-0.012 0)" fill="url(#linear-gradient)"/>
      <path id="Shape-2" data-name="Shape" d="M38.37,13.468a.683.683,0,0,0,.547-.27,5.125,5.125,0,0,0,.909-4.024.683.683,0,1,0-1.32.352,3.8,3.8,0,0,1-.678,2.847.683.683,0,0,0,.547,1.093Z" transform="translate(-11.942 -2.739)" fill="url(#linear-gradient)"/>
      <path id="Shape-3" data-name="Shape" d="M33.257,45.379a3.359,3.359,0,0,0-1.466.342,4.1,4.1,0,0,0-7.083,4.025.683.683,0,0,0,.629.415.676.676,0,0,0,.268-.055.683.683,0,0,0,.361-.9,2.783,2.783,0,0,1-.226-1.1,2.734,2.734,0,0,1,2.733-2.733,2.706,2.706,0,0,1,2.47,1.572.742.742,0,0,0,.048.064.694.694,0,0,0,.036.068c.012.015.03.022.044.036a.96.96,0,0,0,.215.157.68.68,0,0,0,.123.038.629.629,0,0,0,.128.02.84.84,0,0,0,.261-.044.521.521,0,0,0,.054-.013.619.619,0,0,0,.064-.047.711.711,0,0,0,.072-.037,2.015,2.015,0,0,1,1.268-.448,2.05,2.05,0,0,1,1.859,1.192.683.683,0,0,0,1.244-.567A3.417,3.417,0,0,0,33.257,45.379Z" transform="translate(-7.728 -13.944)" fill="url(#linear-gradient)"/>
      <path id="Shape-4" data-name="Shape" d="M16.518,39.033A3.708,3.708,0,0,0,14,42.415a.683.683,0,1,0,1.367,0,2.349,2.349,0,0,1,1.587-2.086.685.685,0,0,0-.436-1.3Z" transform="translate(-4.441 -12.347)" fill="url(#linear-gradient)"/>
      <path id="Shape-5" data-name="Shape" d="M31.517,36.08a.667.667,0,0,0,.166.021.683.683,0,0,0,.662-.517A2.915,2.915,0,0,1,35.1,33.367.683.683,0,0,0,35.1,32a4.257,4.257,0,0,0-4.08,3.251A.683.683,0,0,0,31.517,36.08Z" transform="translate(-9.824 -10.132)" fill="url(#linear-gradient)"/>
    </g>
  </g>
</svg>
