<svg xmlns="http://www.w3.org/2000/svg" width="20" height="24" viewBox="0 0 20 24">
  <g id="trash_1_" data-name="trash (1)" transform="translate(-48)">
    <path id="Контур_286" data-name="Контур 286" d="M66.077,3H61.846V2.25A2.282,2.282,0,0,0,59.538,0H56.462a2.282,2.282,0,0,0-2.308,2.25V3H49.923A1.9,1.9,0,0,0,48,4.875V7.5a.76.76,0,0,0,.769.75h.42l.665,13.607A2.28,2.28,0,0,0,52.159,24H63.841a2.28,2.28,0,0,0,2.305-2.143L66.81,8.25h.42A.76.76,0,0,0,68,7.5V4.875A1.9,1.9,0,0,0,66.077,3ZM55.692,2.25a.761.761,0,0,1,.769-.75h3.077a.761.761,0,0,1,.769.75V3H55.692ZM49.538,4.875a.38.38,0,0,1,.385-.375H66.077a.38.38,0,0,1,.385.375V6.75H49.538ZM64.609,21.786a.76.76,0,0,1-.768.714H52.159a.76.76,0,0,1-.768-.714L50.73,8.25H65.27Z" transform="translate(0 0)" fill="#707070"/>
    <path id="Контур_287" data-name="Контур 287" d="M240.752,219.279a.752.752,0,0,0,.752-.752v-9.775a.752.752,0,0,0-1.5,0v9.775A.752.752,0,0,0,240.752,219.279Z" transform="translate(-182.752 -198.287)" fill="#707070"/>
    <path id="Контур_288" data-name="Контур 288" d="M320.752,219.279a.752.752,0,0,0,.752-.752v-9.775a.752.752,0,0,0-1.5,0v9.775A.752.752,0,0,0,320.752,219.279Z" transform="translate(-258.899 -198.287)" fill="#707070"/>
    <path id="Контур_289" data-name="Контур 289" d="M160.752,219.279a.752.752,0,0,0,.752-.752v-9.775a.752.752,0,0,0-1.5,0v9.775A.752.752,0,0,0,160.752,219.279Z" transform="translate(-106.605 -198.287)" fill="#707070"/>
  </g>
</svg>
