<svg id="uk" xmlns="http://www.w3.org/2000/svg" width="23.855" height="23.859" viewBox="0 0 23.855 23.859">
  <path id="Path_1292" data-name="Path 1292" d="M12.016.063A11.9,11.9,0,0,1,12,23.859,12.056,12.056,0,0,1,0,12,12.073,12.073,0,0,1,12.016.063Z" fill="#f0f0f0"/>
  <g id="Group_2126" data-name="Group 2126" transform="translate(0.411 0.411)">
    <path id="Path_1279" data-name="Path 1279" d="M10.874,100.142a11.885,11.885,0,0,0-2.055,4.151h6.205Z" transform="translate(-8.819 -95.887)" fill="#0052b4"/>
    <path id="Path_1280" data-name="Path 1280" d="M376.21,104.293a11.886,11.886,0,0,0-2.055-4.15l-4.15,4.15Z" transform="translate(-353.176 -95.888)" fill="#0052b4"/>
    <path id="Path_1281" data-name="Path 1281" d="M8.819,322.784a11.886,11.886,0,0,0,2.055,4.15l4.15-4.15Z" transform="translate(-8.819 -308.155)" fill="#0052b4"/>
    <path id="Path_1282" data-name="Path 1282" d="M326.932,10.874a11.885,11.885,0,0,0-4.15-2.055v6.205Z" transform="translate(-308.153 -8.819)" fill="#0052b4"/>
    <path id="Path_1283" data-name="Path 1283" d="M100.142,374.155a11.886,11.886,0,0,0,4.15,2.055v-6.205Z" transform="translate(-95.887 -353.176)" fill="#0052b4"/>
    <path id="Path_1284" data-name="Path 1284" d="M104.292,8.819a11.886,11.886,0,0,0-4.15,2.055l4.15,4.15Z" transform="translate(-95.887 -8.819)" fill="#0052b4"/>
    <path id="Path_1285" data-name="Path 1285" d="M322.783,376.21a11.886,11.886,0,0,0,4.15-2.055l-4.15-4.15Z" transform="translate(-308.154 -353.176)" fill="#0052b4"/>
    <path id="Path_1286" data-name="Path 1286" d="M370.005,322.784l4.15,4.15a11.886,11.886,0,0,0,2.055-4.15Z" transform="translate(-353.176 -308.155)" fill="#0052b4"/>
  </g>
  <g id="Group_2127" data-name="Group 2127">
    <path id="Path_1287" data-name="Path 1287" d="M23.755,10.372H13.484V.1a12.038,12.038,0,0,0-3.112,0V10.372H.1a12.038,12.038,0,0,0,0,3.112H10.372V23.755a12.038,12.038,0,0,0,3.112,0V13.484H23.755a12.038,12.038,0,0,0,0-3.112Z" fill="#d80027"/>
    <path id="Path_1288" data-name="Path 1288" d="M322.783,322.783h0l5.323,5.323q.367-.367.7-.766l-4.557-4.557h-1.467Z" transform="translate(-307.743 -307.743)" fill="#d80027"/>
    <path id="Path_1289" data-name="Path 1289" d="M80.3,322.784h0l-5.323,5.323q.367.367.766.7l4.557-4.557Z" transform="translate(-71.486 -307.744)" fill="#d80027"/>
    <path id="Path_1290" data-name="Path 1290" d="M65.957,80.3h0L60.634,74.98q-.367.367-.7.766L64.49,80.3h1.467Z" transform="translate(-57.14 -71.486)" fill="#d80027"/>
    <path id="Path_1291" data-name="Path 1291" d="M322.783,65.958h0l5.323-5.323q-.367-.367-.766-.7l-4.557,4.557Z" transform="translate(-307.743 -57.141)" fill="#d80027"/>
  </g>
</svg>
