<svg id="user_4_" data-name="user (4)" xmlns="http://www.w3.org/2000/svg" width="78.414" height="95.839" viewBox="0 0 78.414 95.839">
  <path id="Path_102" data-name="Path 102" d="M109.013,47.068a20.587,20.587,0,0,0,15.542-6.895,23.607,23.607,0,0,0,6.439-16.64,23.611,23.611,0,0,0-6.44-16.64,20.965,20.965,0,0,0-31.083,0,23.608,23.608,0,0,0-6.44,16.639,23.607,23.607,0,0,0,6.441,16.641A20.592,20.592,0,0,0,109.013,47.068Zm0,0" transform="translate(-70.422 0)" fill="#fff"/>
  <path id="Path_103" data-name="Path 103" d="M78.224,275.253a60.317,60.317,0,0,0-.762-6.174A50.245,50.245,0,0,0,76,262.871a31.29,31.29,0,0,0-2.455-5.789,21.769,21.769,0,0,0-3.7-5.015,16.249,16.249,0,0,0-5.317-3.473,17.758,17.758,0,0,0-6.788-1.277c-.959,0-1.887.409-3.679,1.622-1.1.748-2.393,1.613-3.833,2.569a21.559,21.559,0,0,1-4.959,2.271,18.562,18.562,0,0,1-12.131,0,21.493,21.493,0,0,1-4.956-2.271c-1.426-.948-2.717-1.812-3.836-2.57-1.79-1.213-2.718-1.622-3.678-1.622a17.738,17.738,0,0,0-6.787,1.278,16.235,16.235,0,0,0-5.318,3.473,21.772,21.772,0,0,0-3.7,5.014,31.357,31.357,0,0,0-2.455,5.79,50.378,50.378,0,0,0-1.46,6.207,60.1,60.1,0,0,0-.762,6.176c-.125,1.87-.188,3.81-.188,5.77,0,5.1,1.56,9.23,4.635,12.275a16.323,16.323,0,0,0,11.944,4.529H61.835A16.319,16.319,0,0,0,73.778,293.3c3.076-3.043,4.636-7.173,4.636-12.276,0-1.969-.065-3.911-.19-5.771Zm0,0" transform="translate(0 -201.99)" fill="#fff"/>
</svg>
