<svg id="Layer_2" data-name="Layer 2" xmlns="http://www.w3.org/2000/svg" width="172.468" height="14.814" viewBox="0 0 172.468 14.814">
  <g id="Group_21" data-name="Group 21" transform="translate(41.281 1.971)">
    <path id="Path_334" data-name="Path 334" d="M309.48,19.11h2.228c1.281,5.406,1.406,6.1,1.587,7.223h.027c.181-1.032.335-2.037,1.393-7.223h2.213c1.17,5.421,1.267,5.944,1.49,7.223h.028c.167-.934.333-1.787,1.629-7.223h2.116l-2.812,9.877h-2c-1.03-4.841-1.211-5.805-1.545-7.7H315.8c-.307,1.9-.474,2.613-1.545,7.7H312.3Z" transform="translate(-309.48 -19.088)" fill="#193158"/>
    <path id="Path_335" data-name="Path 335" d="M421.581,20.9h-5.3v2.078h4.873v1.746h-4.873v2.56h5.541V29.03H414.23V19.16h7.351Z" transform="translate(-400.258 -19.131)" fill="#193158"/>
    <path id="Path_336" data-name="Path 336" d="M483.83,19.11h4.858c2.449,0,3.076,1.514,3.076,2.534a1.965,1.965,0,0,1-1.225,2.022,2.3,2.3,0,0,1,1.545,2.393,2.851,2.851,0,0,1-.863,2.036c-.571.552-1.114.9-3.16.9H483.83Zm2,3.868h2.45c.822,0,1.475-.316,1.475-1.1,0-.812-.584-1.059-1.53-1.059h-2.4Zm0,4.307h2.562c1.016,0,1.6-.44,1.6-1.445,0-.867-.752-1.2-1.5-1.2h-2.657Z" transform="translate(-460.574 -19.088)" fill="#193158"/>
    <path id="Path_337" data-name="Path 337" d="M568.118,29.031h-1.949V20.778h-.028l-1.867,8.253H562.23L560.4,20.778h-.032v8.253H558.43V19.16h3.048l1.81,7.786h.028L565.1,19.16h3.02Z" transform="translate(-525.223 -19.131)" fill="#f98720"/>
    <path id="Path_338" data-name="Path 338" d="M642.428,29.031h-2.2l3.563-9.871H646.2l3.521,9.877h-2.268L646.815,27h-3.691Zm1.254-3.735h2.548l-1.239-3.908h-.028Z" transform="translate(-596.112 -19.131)" fill="#f98720"/>
    <path id="Path_339" data-name="Path 339" d="M724.638,28.987H722.55v-9.87h2.088v4.01l3.815-4.016h2.7l-4.074,4.046,4.317,5.832H728.7l-3.089-4.334-.975.992Z" transform="translate(-667.451 -19.088)" fill="#f98720"/>
    <path id="Path_340" data-name="Path 340" d="M804.08,20.9h-5.3v2.078h4.873v1.746H798.78v2.56h5.541V29.03H796.73V19.16h7.35Z" transform="translate(-731.736 -19.131)" fill="#f98720"/>
    <path id="Path_341" data-name="Path 341" d="M866.33,19.11h5.052a2.8,2.8,0,0,1,3.147,2.793,2.358,2.358,0,0,1-1.545,2.353c.82.356,1.266.659,1.266,2.5,0,1.446,0,1.8.446,1.967v.267h-2.31a6.713,6.713,0,0,1-.223-2c0-1.347-.084-1.867-1.629-1.867h-2.158v3.868H866.33Zm4.491,4.348c1.086,0,1.615-.373,1.615-1.35,0-.522-.237-1.291-1.467-1.291h-2.594v2.641Z" transform="translate(-792.052 -19.088)" fill="#f98720"/>
  </g>
  <g id="Group_33" data-name="Group 33">
    <path id="Path_342" data-name="Path 342" d="M136.82.872a13.391,13.391,0,0,1,11.109.743,15.172,15.172,0,0,1,6.18,7.1,14.931,14.931,0,0,1-4.216,3.69,20.092,20.092,0,0,1-5.638,2.414S151.937,3.349,136.82.872Z" transform="translate(-118.57 -0.004)" fill="#193158"/>
    <path id="Path_344" data-name="Path 344" d="M136.82,10.27s2.628,1.9,2.8,3.879a3.538,3.538,0,0,1-2.578,3.564,6.311,6.311,0,0,1,3.228,1.365,4.648,4.648,0,0,1,1.439,2.668S148.472,13.077,136.82,10.27Z" transform="translate(-118.57 -8.906)" fill="#193158"/>
    <path id="Path_346" data-name="Path 346" d="M17.29.872a13.394,13.394,0,0,0-11.109.743A15.179,15.179,0,0,0,0,8.714,14.956,14.956,0,0,0,4.216,12.4a20.108,20.108,0,0,0,5.64,2.414S2.172,3.349,17.29.872Z" transform="translate(0 -0.004)" fill="#193158"/>
    <path id="Path_348" data-name="Path 348" d="M85.19,10.27s-2.629,1.9-2.8,3.879a3.539,3.539,0,0,0,2.585,3.564,6.3,6.3,0,0,0-3.227,1.365,4.631,4.631,0,0,0-1.442,2.665S73.538,13.077,85.19,10.27Z" transform="translate(-67.9 -8.906)" fill="#193158"/>
    <path id="Path_350" data-name="Path 350" d="M123.921,40.07a1.69,1.69,0,1,1-1.69-1.67,1.69,1.69,0,0,1,1.69,1.67Z" transform="translate(-104.462 -33.284)" fill="#f98720"/>
    <path id="Path_351" data-name="Path 351" d="M121.369,68.409a3.032,3.032,0,0,0-.842,0,2.129,2.129,0,0,0-1.467,2.077c0,1.156,1.867,2.682,1.867,2.682l.012-.008.013.008s1.867-1.527,1.867-2.682a2.12,2.12,0,0,0-1.45-2.077Z" transform="translate(-103.179 -59.265)" fill="#193158"/>
  </g>
  <g id="Group_32" data-name="Group 32" transform="translate(129.31 1.99)">
    <path id="Path_353" data-name="Path 353" d="M973.3,22.284v-.14c0-.8-.116-1.539-1.047-1.539-.6,0-.982.241-.982.884,0,.718.459,1,1.02,1.347a15.8,15.8,0,0,1,2.169,1.553,2.45,2.45,0,0,1,.8,1.981c0,1.79-1.2,2.721-2.948,2.721-2.144,0-2.909-1.186-2.909-2.875v-.692h1.787v.719c0,.832.292,1.425,1.122,1.425a.985.985,0,0,0,1.11-1.111,1.431,1.431,0,0,0-.714-1.25,13.936,13.936,0,0,1-2.821-2.177,2.615,2.615,0,0,1-.459-1.454c0-1.611.919-2.5,2.8-2.5,2.847,0,2.769,2.169,2.781,3.1Z" transform="translate(-969.403 -19.176)" fill="#193158"/>
    <path id="Path_354" data-name="Path 354" d="M1025.77,20.9h5.958v1.386h-2.08v8.07h-1.787v-8.07h-2.092Z" transform="translate(-1018.253 -20.667)" fill="#193158"/>
    <path id="Path_355" data-name="Path 355" d="M1088.98,20.9h1.787v6.591c0,2.1-.69,3.091-3.024,3.091-2.361,0-3.051-1-3.051-3.091V20.9h1.786v6.441c0,.91.064,1.817,1.277,1.817,1.16,0,1.224-.907,1.224-1.817Z" transform="translate(-1069.314 -20.667)" fill="#193158"/>
    <path id="Path_356" data-name="Path 356" d="M1149.72,30.356V20.9h3.727a2.216,2.216,0,0,1,1.85,1.067,6.529,6.529,0,0,1,.523,3.261c0,1.867,0,4.027-1.467,4.869a2.655,2.655,0,0,1-1.334.255Zm2.572-1.39c1.6,0,1.7-.83,1.7-3.567,0-2.233-.232-3.113-1.3-3.113h-1.175v6.68Z" transform="translate(-1125.67 -20.667)" fill="#193158"/>
    <path id="Path_357" data-name="Path 357" d="M1214.1,30.356V20.9h1.786v9.456Z" transform="translate(-1181.462 -20.667)" fill="#193158"/>
    <path id="Path_358" data-name="Path 358" d="M1246.12,23.376c.076-2.4.267-4.2,3.125-4.2s3.051,1.79,3.124,4.2v1.353c0,2.521-.193,4.362-3.128,4.362s-3.125-1.841-3.125-4.362Zm1.835,2.233c0,.786.065,2.058,1.29,2.058,1.277,0,1.289-1.3,1.289-2.208V22.914c0-.808-.037-2.309-1.289-2.309-1.211,0-1.29,1.225-1.29,2.028Z" transform="translate(-1209.211 -19.176)" fill="#193158"/>
  </g>
</svg>
